<?xml version="1.0" encoding="UTF-8" standalone="no"?><!-- Generator: Gravit.io --><svg xmlns="http://www.w3.org/2000/svg" xmlns:xlink="http://www.w3.org/1999/xlink" style="isolation:isolate" viewBox="0 0 368 342" width="368pt" height="342pt"><defs><clipPath id="_clipPath_v7dYZJ9bcvl3155TacUe1G8GFpvTfK1p"><rect width="368" height="342"/></clipPath></defs><g clip-path="url(#_clipPath_v7dYZJ9bcvl3155TacUe1G8GFpvTfK1p)"><path d=" M 182.611 17 L 349 130.68 L 284.452 324.322 L 83.638 324.322 L 16.222 130.68 L 182.611 17 Z " fill="rgb(255,255,255)" vector-effect="non-scaling-stroke" stroke-width="30" stroke="rgb(255,255,255)" stroke-linejoin="round" stroke-linecap="round" stroke-miterlimit="3"/><g><g><g><g><path d=" M 272.549 260.514 C 272.549 260.514 260.249 263.614 258.349 259.714 C 256.449 255.814 261.649 248.814 259.049 244.814 C 256.449 240.814 254.449 234.914 243.249 246.514 L 231.049 247.214 C 231.049 247.214 206.649 241.914 200.649 243.214 C 194.749 244.514 127.049 270.314 127.049 270.314 L 131.349 257.414 L 288.449 195.714 L 272.549 260.514 Z " fill="rgb(57,53,91)"/><path d=" M 164.949 152.714 L 172.749 149.714 L 187.549 154.514 L 181.749 157.814 L 181.749 168.714 L 163.649 168.714 L 161.349 153.214" fill="rgb(162,141,194)"/></g><path d=" M 269.649 262.114 C 274.949 218.014 309.849 183.214 310.249 182.914 C 310.849 182.414 310.549 181.214 310.449 180.814 C 309.849 180.914 309.049 180.714 308.449 180.814 C 248.149 191.114 196.549 213.914 163.349 230.414 C 135.749 244.114 112.849 258.114 105.649 262.814 L 110.349 275.714 C 110.349 275.714 238.049 212.014 277.349 204.914 C 277.349 204.914 268.649 230.914 266.049 250.314 C 267.349 255.614 264.049 261.714 269.649 262.114 Z " fill="rgb(57,53,91)"/></g><g><path d=" M 215.849 182.314 C 216.049 182.414 216.249 182.414 216.549 182.414 C 217.149 182.314 217.749 181.914 217.949 181.214 C 218.249 180.314 217.649 179.414 216.849 179.214 L 197.849 173.714 C 197.649 173.614 197.449 173.614 197.249 173.614 L 173.649 175.414 C 172.749 175.514 172.049 176.314 172.149 177.214 C 172.249 178.114 173.049 178.814 173.949 178.714 L 197.249 176.914 L 215.849 182.314 Z " fill-rule="evenodd" fill="rgb(57,53,91)"/><path d=" M 95.949 237.414 C 95.349 237.814 95.149 238.714 95.549 239.314 L 100.349 246.914 C 100.749 247.514 101.449 247.714 102.049 247.414 C 102.149 247.414 102.249 247.314 102.249 247.314 C 102.849 246.914 103.049 246.014 102.649 245.414 L 97.849 237.814 C 97.449 237.214 96.549 237.014 95.949 237.414 Z " fill-rule="evenodd" fill="rgb(57,53,91)"/><path d=" M 153.549 203.014 L 126.649 228.214 C 121.349 233.314 123.349 235.314 123.349 235.314 L 153.649 215.414 C 153.649 215.414 152.349 210.214 154.749 206.814 C 157.149 203.414 153.549 203.014 153.549 203.014 Z " fill-rule="evenodd" fill="rgb(57,53,91)"/><path d=" M 164.149 217.814 C 140.749 230.814 101.349 257.414 101.649 260.014 C 101.649 260.214 139.249 235.614 165.049 224.814 C 166.749 224.214 164.149 217.814 164.149 217.814 Z " fill-rule="evenodd" fill="rgb(57,53,91)"/><path d=" M 168.949 153.214 C 168.949 153.214 168.949 153.214 175.649 155.114 C 177.149 155.514 176.349 160.214 176.349 160.214 C 176.349 160.214 175.749 162.714 169.549 161.614 L 170.449 168.814 L 162.349 169.014 L 160.849 157.014 L 170.549 160.114 C 170.549 160.114 173.249 159.614 172.349 156.914 L 163.849 154.514 L 168.949 153.214 Z " fill-rule="evenodd" fill="rgb(57,53,91)"/><path d=" M 229.049 202.114 L 225.349 202.914 L 224.849 194.014 L 227.949 193.614 L 229.049 202.114 Z " fill-rule="evenodd" fill="rgb(57,53,91)"/><path d=" M 223.149 194.914 C 223.249 194.914 223.249 194.914 223.249 194.914 C 223.249 194.914 223.149 194.914 223.149 194.914 Z " fill="rgb(57,53,91)"/><path d=" M 222.849 194.814 C 222.949 194.814 222.949 194.814 222.949 194.814 C 222.949 194.914 222.949 194.914 222.849 194.814 Z " fill="rgb(57,53,91)"/><path d=" M 222.549 194.814 C 222.649 194.814 222.649 194.814 222.749 194.814 C 222.649 194.814 222.649 194.814 222.549 194.814 Z " fill="rgb(57,53,91)"/><path d=" M 222.049 194.614 C 222.149 194.614 222.249 194.614 222.449 194.714 C 222.249 194.714 222.149 194.714 222.049 194.614 Z " fill="rgb(57,53,91)"/><path d=" M 222.249 200.314 C 222.149 200.314 222.149 200.314 222.049 200.414 C 222.149 200.314 222.149 200.314 222.249 200.314 Z " fill="rgb(57,53,91)"/><line x1="223.249" y1="200.014" x2="223.149" y2="200.014"/><path d=" M 220.049 201.014 C 219.949 201.014 219.949 201.014 219.849 201.114 C 219.949 201.014 219.949 201.014 220.049 201.014 Z " fill="rgb(57,53,91)"/><path d=" M 218.749 201.414 C 218.649 201.414 218.649 201.514 218.549 201.514 C 218.549 201.514 218.649 201.414 218.749 201.414 Z " fill="rgb(57,53,91)"/><path d=" M 221.149 200.614 C 221.049 200.614 221.049 200.614 221.149 200.614 C 221.049 200.614 221.049 200.614 221.149 200.614 Z " fill="rgb(57,53,91)"/><path d=" M 221.549 194.614 C 221.649 194.614 221.749 194.614 221.849 194.714 C 221.749 194.614 221.649 194.614 221.549 194.614 Z " fill="rgb(57,53,91)"/><path d=" M 208.249 193.214 C 209.249 193.214 210.249 193.314 211.149 193.314 C 210.249 193.314 209.249 193.214 208.249 193.214 Z " fill="rgb(57,53,91)"/><path d=" M 220.749 194.414 C 220.949 194.414 221.149 194.514 221.349 194.514 C 221.149 194.514 220.949 194.414 220.749 194.414 Z " fill="rgb(57,53,91)"/><line x1="217.349" y1="201.914" x2="217.249" y2="201.914"/><path d=" M 211.449 193.414 C 212.349 193.514 213.249 193.514 214.149 193.614 C 213.249 193.514 212.349 193.414 211.449 193.414 Z " fill="rgb(57,53,91)"/><path d=" M 199.049 193.314 C 199.349 193.314 199.749 193.314 200.049 193.314 C 199.749 193.314 199.349 193.314 199.049 193.314 Z " fill="rgb(57,53,91)"/><path d=" M 200.749 193.214 C 201.949 193.214 203.049 193.114 204.149 193.114 C 203.049 193.214 201.949 193.214 200.749 193.214 Z " fill="rgb(57,53,91)"/><path d=" M 204.649 193.214 C 205.749 193.214 206.849 193.214 207.849 193.214 C 206.849 193.214 205.749 193.214 204.649 193.214 Z " fill="rgb(57,53,91)"/><path d=" M 218.949 194.114 C 219.249 194.214 219.649 194.214 219.949 194.314 C 219.649 194.214 219.349 194.214 218.949 194.114 Z " fill="rgb(57,53,91)"/><path d=" M 220.049 194.314 C 220.249 194.314 220.349 194.414 220.449 194.414 C 220.349 194.314 220.249 194.314 220.049 194.314 Z " fill="rgb(57,53,91)"/><path d=" M 214.349 193.614 C 215.149 193.714 215.949 193.814 216.649 193.814 C 215.949 193.714 215.149 193.614 214.349 193.614 Z " fill="rgb(57,53,91)"/><path d=" M 218.149 194.014 C 218.349 194.014 218.549 194.114 218.749 194.114 C 218.549 194.114 218.349 194.014 218.149 194.014 Z " fill="rgb(57,53,91)"/><path d=" M 216.849 193.814 C 217.349 193.914 217.749 193.914 218.149 194.014 C 217.749 193.914 217.249 193.914 216.849 193.814 Z " fill="rgb(57,53,91)"/><path d=" M 209.649 204.914 C 209.549 204.914 209.449 205.014 209.449 205.014 C 209.449 204.914 209.549 204.914 209.649 204.914 Z " fill="rgb(57,53,91)"/><path d=" M 211.249 204.214 C 211.249 204.214 211.149 204.214 211.149 204.314 C 211.149 204.314 211.249 204.214 211.249 204.214 Z " fill="rgb(57,53,91)"/><path d=" M 202.549 207.814 C 202.449 207.814 202.449 207.914 202.349 207.914 C 202.449 207.814 202.449 207.814 202.549 207.814 Z " fill="rgb(57,53,91)"/><path d=" M 212.849 203.614 C 212.849 203.614 212.749 203.614 212.749 203.714 C 212.749 203.614 212.749 203.614 212.849 203.614 Z " fill="rgb(57,53,91)"/><line x1="206.049" y1="206.314" x2="206.049" y2="206.314"/><path d=" M 204.349 207.014 C 204.249 207.014 204.149 207.114 204.149 207.114 C 204.249 207.114 204.349 207.014 204.349 207.014 Z " fill="rgb(57,53,91)"/><path d=" M 214.449 203.014 C 214.349 203.014 214.249 203.114 214.249 203.114 C 214.249 203.014 214.349 203.014 214.449 203.014 Z " fill="rgb(57,53,91)"/><path d=" M 200.649 208.614 L 198.749 193.914 C 198.849 193.714 198.849 193.514 198.949 193.414 C 191.249 193.814 181.849 195.014 171.249 197.714 L 174.149 220.314 C 174.249 220.214 187.549 214.114 200.649 208.614 C 200.749 208.514 200.649 208.514 200.649 208.614 Z " fill="rgb(57,53,91)"/><path d=" M 207.849 205.614 C 207.749 205.614 207.749 205.614 207.649 205.714 C 207.749 205.614 207.749 205.614 207.849 205.614 Z " fill="rgb(57,53,91)"/><path d=" M 215.949 202.414 C 215.849 202.414 215.849 202.414 215.749 202.514 C 215.849 202.414 215.949 202.414 215.949 202.414 Z " fill="rgb(57,53,91)"/><path d=" M 207.649 205.714 C 207.149 205.914 206.649 206.114 206.049 206.314 C 206.649 206.114 207.149 205.914 207.649 205.714 Z " fill="rgb(57,53,91)"/><path d=" M 216.649 193.814 C 216.749 193.814 216.749 193.814 216.849 193.814 C 216.749 193.814 216.649 193.814 216.649 193.814 Z " fill="rgb(57,53,91)"/><line x1="218.149" y1="194.014" x2="218.149" y2="194.014"/><path d=" M 218.749 194.114 C 218.849 194.114 218.849 194.114 218.949 194.114 C 218.849 194.114 218.849 194.114 218.749 194.114 Z " fill="rgb(57,53,91)"/><path d=" M 206.049 206.314 C 205.549 206.514 204.949 206.714 204.449 207.014 C 204.949 206.814 205.449 206.614 206.049 206.314 Z " fill="rgb(57,53,91)"/><line x1="219.949" y1="194.314" x2="220.049" y2="194.314"/><path d=" M 202.349 207.914 C 201.849 208.114 201.249 208.414 200.749 208.614 C 201.249 208.314 201.749 208.114 202.349 207.914 Z " fill="rgb(57,53,91)"/><path d=" M 200.049 193.314 C 200.249 193.314 200.549 193.314 200.749 193.314 C 200.549 193.214 200.249 193.314 200.049 193.314 Z " fill="rgb(57,53,91)"/><path d=" M 204.149 193.214 C 204.349 193.214 204.449 193.214 204.649 193.214 C 204.449 193.214 204.349 193.214 204.149 193.214 Z " fill="rgb(57,53,91)"/><path d=" M 218.549 201.514 C 218.149 201.614 217.749 201.814 217.349 201.914 C 217.749 201.814 218.149 201.614 218.549 201.514 Z " fill="rgb(57,53,91)"/><path d=" M 211.149 193.314 C 211.249 193.314 211.349 193.314 211.449 193.314 C 211.349 193.314 211.249 193.314 211.149 193.314 Z " fill="rgb(57,53,91)"/><path d=" M 204.149 207.114 C 203.649 207.314 203.049 207.514 202.549 207.814 C 203.049 207.514 203.649 207.314 204.149 207.114 Z " fill="rgb(57,53,91)"/><path d=" M 207.849 193.214 C 207.949 193.214 208.149 193.214 208.249 193.214 C 208.049 193.214 207.949 193.214 207.849 193.214 Z " fill="rgb(57,53,91)"/><path d=" M 214.049 193.514 C 214.149 193.514 214.149 193.514 214.249 193.514 C 214.249 193.614 214.149 193.614 214.049 193.514 Z " fill="rgb(57,53,91)"/><path d=" M 199.049 193.314 L 199.049 193.314 L 199.049 193.314 L 199.049 193.314 Z " fill="rgb(57,53,91)"/><path d=" M 222.049 200.314 C 221.749 200.414 221.449 200.514 221.049 200.614 C 221.449 200.514 221.749 200.414 222.049 200.314 Z " fill="rgb(57,53,91)"/><path d=" M 223.049 200.014 C 222.749 200.114 222.549 200.114 222.249 200.214 C 222.549 200.214 222.849 200.114 223.049 200.014 Z " fill="rgb(57,53,91)"/><path d=" M 220.549 194.414 C 220.649 194.414 220.649 194.414 220.749 194.414 C 220.649 194.414 220.549 194.414 220.549 194.414 Z " fill="rgb(57,53,91)"/><path d=" M 215.749 202.514 C 215.349 202.714 214.849 202.814 214.449 203.014 C 214.949 202.814 215.349 202.614 215.749 202.514 Z " fill="rgb(57,53,91)"/><path d=" M 217.149 202.014 C 216.749 202.114 216.349 202.314 215.949 202.414 C 216.349 202.214 216.749 202.114 217.149 202.014 Z " fill="rgb(57,53,91)"/><path d=" M 223.949 199.814 C 223.749 199.914 223.449 199.914 223.149 200.014 C 223.449 199.914 223.749 199.914 223.949 199.814 Z " fill="rgb(57,53,91)"/><path d=" M 221.049 200.614 C 220.749 200.714 220.349 200.814 220.049 200.914 C 220.349 200.914 220.749 200.714 221.049 200.614 Z " fill="rgb(57,53,91)"/><path d=" M 219.849 201.014 C 219.449 201.114 219.149 201.214 218.749 201.414 C 219.149 201.314 219.449 201.114 219.849 201.014 Z " fill="rgb(57,53,91)"/><path d=" M 214.249 203.114 C 213.749 203.314 213.349 203.514 212.849 203.614 C 213.249 203.414 213.749 203.214 214.249 203.114 Z " fill="rgb(57,53,91)"/><path d=" M 221.349 194.514 C 221.449 194.514 221.449 194.514 221.549 194.514 C 221.449 194.514 221.449 194.514 221.349 194.514 Z " fill="rgb(57,53,91)"/><path d=" M 221.849 194.614 C 221.949 194.614 221.949 194.614 222.049 194.614 C 221.949 194.614 221.849 194.614 221.849 194.614 Z " fill="rgb(57,53,91)"/><path d=" M 209.349 205.014 C 208.849 205.214 208.349 205.414 207.849 205.614 C 208.349 205.414 208.849 205.214 209.349 205.014 Z " fill="rgb(57,53,91)"/><path d=" M 211.149 204.314 C 210.649 204.514 210.149 204.714 209.649 204.914 C 210.149 204.714 210.649 204.514 211.149 204.314 Z " fill="rgb(57,53,91)"/><path d=" M 222.349 194.714 C 222.449 194.714 222.449 194.714 222.549 194.714 C 222.449 194.814 222.449 194.714 222.349 194.714 Z " fill="rgb(57,53,91)"/><path d=" M 212.649 203.714 C 212.149 203.914 211.749 204.114 211.249 204.314 C 211.749 204.014 212.249 203.814 212.649 203.714 Z " fill="rgb(57,53,91)"/><path d=" M 222.749 194.814 C 222.849 194.814 222.849 194.814 222.949 194.814 C 222.849 194.814 222.749 194.814 222.749 194.814 Z " fill="rgb(57,53,91)"/><path d=" M 223.049 194.914 C 223.049 194.914 223.149 194.914 223.049 194.914 C 223.149 194.914 223.049 194.914 223.049 194.914 Z " fill="rgb(57,53,91)"/><path d=" M 200.649 208.614 C 200.649 208.514 200.749 208.514 200.649 208.614 C 201.249 208.414 201.749 208.114 202.249 207.914 C 202.349 207.914 202.449 207.814 202.449 207.814 C 202.949 207.614 203.549 207.414 204.049 207.114 C 204.149 207.114 204.249 207.014 204.249 207.014 C 204.749 206.814 205.349 206.614 205.849 206.314 C 205.849 206.314 205.849 206.314 205.949 206.314 C 206.449 206.114 207.049 205.914 207.549 205.714 C 207.649 205.714 207.649 205.714 207.749 205.614 C 208.249 205.414 208.749 205.214 209.249 205.014 C 209.349 205.014 209.449 204.914 209.449 204.914 C 209.949 204.714 210.449 204.514 210.949 204.314 C 210.949 204.314 211.049 204.314 211.049 204.214 C 211.549 204.014 212.049 203.814 212.449 203.614 C 212.449 203.614 212.549 203.614 212.549 203.514 C 213.049 203.314 213.449 203.114 213.949 203.014 C 214.049 203.014 214.149 202.914 214.149 202.914 C 214.649 202.714 215.049 202.614 215.449 202.414 C 215.549 202.414 215.549 202.414 215.649 202.314 C 216.049 202.114 216.449 202.014 216.849 201.914 C 216.849 201.914 216.949 201.914 216.949 201.914 C 217.349 201.814 217.749 201.614 218.149 201.514 C 218.249 201.514 218.249 201.414 218.349 201.414 C 218.749 201.314 219.049 201.114 219.449 201.014 C 219.549 201.014 219.549 201.014 219.649 200.914 C 219.949 200.814 220.349 200.714 220.649 200.614 C 220.649 200.614 220.649 200.614 220.749 200.614 C 221.049 200.514 221.449 200.414 221.749 200.314 C 221.849 200.314 221.849 200.314 221.949 200.214 C 222.249 200.114 222.549 200.014 222.749 200.014 C 222.749 200.014 222.849 200.014 222.849 200.014 C 223.149 199.914 223.349 199.914 223.649 199.814 L 222.949 194.914 C 222.949 194.914 222.849 194.914 222.849 194.914 C 222.849 194.914 222.749 194.914 222.749 194.914 C 222.749 194.914 222.649 194.914 222.649 194.914 C 222.549 194.914 222.549 194.914 222.449 194.914 C 222.449 194.914 222.349 194.914 222.249 194.914 C 222.149 194.914 222.149 194.914 222.049 194.914 C 221.949 194.914 221.849 194.914 221.649 194.814 C 221.549 194.814 221.549 194.814 221.449 194.814 C 221.349 194.814 221.249 194.814 221.149 194.714 C 221.049 194.714 221.049 194.714 220.949 194.714 C 220.749 194.714 220.549 194.614 220.349 194.614 C 220.249 194.614 220.249 194.614 220.149 194.614 C 220.049 194.614 219.849 194.614 219.749 194.514 C 219.749 194.514 219.649 194.514 219.649 194.514 C 219.349 194.514 219.049 194.414 218.649 194.314 C 218.549 194.314 218.549 194.314 218.449 194.314 C 218.249 194.314 218.049 194.214 217.849 194.214 C 217.849 194.214 217.849 194.214 217.849 194.214 C 217.449 194.114 216.949 194.114 216.549 194.014 C 216.449 194.014 216.449 194.014 216.349 194.014 C 215.649 193.914 214.849 193.814 214.049 193.814 C 213.949 193.814 213.949 193.814 213.849 193.814 C 213.049 193.714 212.149 193.714 211.149 193.614 C 211.049 193.614 210.949 193.614 210.849 193.614 C 209.949 193.514 208.949 193.514 207.949 193.514 C 207.849 193.514 207.649 193.514 207.549 193.514 C 206.549 193.514 205.449 193.514 204.349 193.514 C 204.149 193.514 204.049 193.514 203.849 193.514 C 202.749 193.514 201.649 193.514 200.449 193.614 C 200.249 193.614 199.949 193.614 199.749 193.614 C 199.449 193.614 199.049 193.614 198.749 193.614 C 198.749 193.614 198.749 193.614 198.749 193.614 C 198.649 193.814 198.549 194.014 198.549 194.114 L 200.649 208.614 Z " fill="rgb(86,79,113)"/><path d=" M 146.149 203.214 L 144.149 196.414 L 162.249 176.514 L 165.149 176.214 L 167.049 190.314 L 161.549 196.914 L 160.149 192.914 L 146.149 203.214 Z " fill="rgb(57,53,91)"/><path d=" M 151.249 279.514 C 158.149 279.214 164.949 278.614 170.849 275.014 L 126.249 278.014 C 125.349 278.114 124.649 278.814 124.749 279.814 C 124.849 280.714 125.549 281.414 126.549 281.314 L 139.849 280.414 L 138.849 280.314 C 142.749 279.414 146.949 279.714 151.249 279.514 Z " fill="rgb(57,53,91)"/><path d=" M 312.549 178.314 C 312.149 177.914 311.649 177.714 311.049 177.814 C 310.049 178.014 309.149 178.114 308.149 178.314 C 254.049 187.814 206.549 206.414 173.049 222.314 L 169.249 196.614 C 174.949 194.814 199.249 188.114 224.849 194.014 L 224.949 196.314 C 225.049 197.214 225.749 197.914 226.649 197.914 C 227.549 197.814 228.249 197.114 228.249 196.214 L 228.049 192.614 C 228.049 191.914 227.449 191.314 226.749 191.114 C 225.849 190.914 225.049 190.714 224.149 190.514 L 222.349 176.214 C 222.249 175.614 221.849 175.014 221.149 174.814 L 198.149 167.814 C 197.949 167.714 197.749 167.714 197.549 167.714 L 183.649 168.714 L 182.449 159.314 L 189.449 156.914 C 190.149 156.714 190.549 156.014 190.549 155.314 C 190.549 154.614 190.049 154.014 189.449 153.714 L 173.949 148.714 L 172.649 138.314 C 172.549 137.414 171.749 136.814 170.849 136.914 C 169.949 137.014 169.349 137.814 169.449 138.714 L 170.749 148.914 L 160.349 152.914 C 159.649 153.214 159.249 153.814 159.249 154.514 C 159.249 155.214 159.749 155.814 160.449 156.014 L 169.449 158.814 C 170.349 159.114 171.249 158.614 171.549 157.714 C 171.849 156.814 171.349 155.914 170.449 155.614 L 165.949 154.214 L 172.549 151.714 L 183.749 155.314 L 181.349 156.114 C 181.249 156.114 181.149 156.214 181.049 156.214 C 180.849 156.114 180.649 156.114 180.449 156.214 C 179.549 156.314 178.949 157.114 179.049 158.014 L 180.449 168.814 L 161.549 170.214 C 161.149 170.214 160.749 170.414 160.449 170.714 L 139.249 194.514 C 138.849 194.914 138.749 195.514 138.849 196.114 L 141.949 206.514 L 104.849 242.214 C 104.449 242.614 104.249 243.214 104.349 243.714 L 105.649 250.214 C 105.849 251.114 106.649 251.614 107.449 251.514 C 107.449 251.514 107.549 251.514 107.549 251.514 C 108.449 251.314 109.049 250.414 108.849 249.614 L 107.649 244.014 L 158.449 195.114 L 160.849 213.714 L 115.649 242.414 C 114.849 242.914 114.649 243.914 115.149 244.714 C 115.649 245.514 116.649 245.714 117.449 245.214 L 163.549 216.014 C 164.049 215.714 164.349 215.014 164.349 214.414 L 161.349 191.514 C 161.249 190.914 160.849 190.414 160.249 190.214 C 159.649 190.014 159.049 190.114 158.549 190.614 L 144.549 204.114 L 142.249 196.214 L 162.449 173.614 L 166.349 173.314 L 168.149 187.414 C 168.249 188.314 169.049 188.914 169.949 188.814 C 170.849 188.714 171.449 187.914 171.349 187.014 L 169.549 173.014 L 197.449 170.914 L 219.049 177.514 L 220.649 189.614 C 192.449 184.614 167.849 193.314 166.749 193.714 C 166.049 194.014 165.549 194.714 165.649 195.514 L 169.649 223.014 C 169.649 223.214 169.749 223.414 169.849 223.514 C 166.549 225.114 163.349 226.714 160.249 228.214 C 123.849 246.514 103.349 260.914 103.149 261.014 C 102.449 261.514 102.249 262.614 102.749 263.314 C 103.249 264.014 104.349 264.214 105.049 263.714 C 105.049 263.714 106.249 262.914 108.449 261.414 L 106.649 259.614 C 114.049 254.614 130.949 244.514 169.349 225.514 C 230.649 195.114 311.049 179.914 311.049 179.914 L 311.549 183.614 C 287.449 202.214 275.249 246.314 271.449 262.514 C 271.849 262.514 272.249 262.414 272.649 262.314 C 272.649 262.314 272.649 262.314 272.749 262.314 C 277.949 219.214 311.849 185.214 312.249 184.814 C 314.849 182.714 313.849 179.714 312.549 178.314 Z " fill="rgb(57,53,91)"/><path d=" M 280.449 225.714 C 275.249 236.814 270.949 249.414 269.449 262.814 C 270.049 262.814 270.749 262.814 271.449 262.714 C 275.249 246.514 287.549 202.414 311.549 183.814 L 312.849 179.214 C 312.849 179.214 230.549 194.414 169.249 224.814 C 130.949 243.814 113.449 254.714 106.049 259.614 L 108.449 261.614 C 115.649 256.914 134.049 245.314 161.849 231.314 C 195.249 214.514 247.749 192.214 308.649 181.514 C 309.249 181.414 309.849 181.314 310.449 181.214 C 310.549 181.614 310.549 182.114 309.949 182.714 C 309.749 182.914 292.549 200.214 280.449 225.714 Z " fill="rgb(57,53,91)"/><path d=" M 185.849 259.714 C 191.949 253.614 201.949 246.214 211.049 247.814 C 218.249 249.014 224.149 254.914 231.349 254.214 C 235.049 253.814 238.749 253.514 241.749 251.214 C 244.449 249.114 245.649 245.114 248.149 243.114 C 249.749 241.814 251.749 241.314 253.649 241.314 C 252.949 240.314 252.149 239.614 251.249 239.714 C 245.949 239.914 244.949 225.414 249.749 220.814 C 254.449 216.214 250.449 216.314 250.449 216.314 C 219.749 222.914 132.749 265.814 127.549 269.814 C 120.049 275.614 128.049 274.714 175.549 269.814 C 179.249 266.714 182.549 263.214 185.849 259.714 Z " fill="rgb(57,53,91)"/><path d=" M 256.049 247.114 C 256.049 245.214 252.749 244.914 252.749 247.014 C 252.749 252.214 250.449 257.114 246.049 260.114 C 240.549 263.814 233.649 262.614 227.849 260.714 C 218.749 257.714 207.649 251.414 198.549 258.214 C 196.749 259.614 195.349 261.614 194.049 263.314 C 191.949 266.014 189.749 268.614 187.249 271.014 C 180.549 277.814 172.049 282.214 162.349 282.314 C 160.149 282.314 160.649 285.414 162.549 285.414 C 172.049 285.314 180.449 281.514 187.549 275.314 C 192.449 270.914 195.849 265.114 200.749 260.714 C 205.549 256.414 213.449 258.414 218.749 260.414 C 224.949 262.714 230.849 265.414 237.549 265.614 C 248.149 265.814 256.149 257.414 256.049 247.114 Z  M 230.949 269.014 C 227.749 270.414 223.349 268.914 220.249 268.114 C 216.949 267.214 213.749 266.614 210.349 266.914 C 201.349 267.914 197.449 276.414 190.949 281.414 C 189.249 282.714 190.949 285.714 192.649 284.314 C 199.549 279.014 203.549 269.914 213.449 270.114 C 219.849 270.214 226.349 274.814 232.749 271.914 C 234.649 271.014 232.949 268.114 230.949 269.014 Z  M 281.949 249.314 C 279.849 248.614 279.049 251.814 281.049 252.614 C 285.249 254.114 286.749 259.314 284.649 263.114 C 281.849 268.214 274.449 268.714 269.349 268.614 C 264.449 268.514 259.649 267.514 254.849 267.814 C 249.649 268.114 245.149 270.414 241.349 273.814 C 239.749 275.314 242.149 277.714 243.749 276.214 C 254.549 266.314 269.249 275.214 281.749 269.914 C 290.749 266.114 291.649 252.714 281.949 249.314 Z " fill="rgb(57,53,91)"/><path d=" M 158.049 154.614 L 152.649 160.514 L 153.149 172.514 L 138.549 190.114 C 138.549 190.114 138.049 192.814 139.349 192.114 C 140.749 191.414 159.149 169.914 159.149 169.914 L 158.049 154.614 Z " fill-rule="evenodd" fill="rgb(57,53,91)"/><path d=" M 54.849 122.414 C 54.849 122.414 54.749 131.814 59.149 131.814 C 63.549 131.814 71.749 131.814 71.749 131.814 L 72.349 134.314 L 52.849 135.114 C 52.849 135.014 53.749 120.814 54.849 122.414 Z " fill-rule="evenodd" fill="rgb(57,53,91)"/><path d=" M 241.449 118.014 C 241.349 117.414 240.849 116.814 240.249 116.614 L 110.549 78.314 C 110.449 78.314 110.449 78.314 110.349 78.314 L 110.349 78.214 C 110.149 77.614 109.649 77.214 108.949 77.214 C 108.349 77.214 107.749 77.714 107.649 78.314 L 107.349 79.614 L 52.149 115.414 C 52.149 115.414 52.149 115.414 52.149 115.414 C 52.049 115.414 52.049 115.514 51.949 115.514 C 51.949 115.514 51.849 115.514 51.849 115.614 C 51.849 115.614 51.749 115.714 51.749 115.714 C 51.749 115.714 51.649 115.814 51.649 115.814 C 51.649 115.914 51.549 115.914 51.549 116.014 C 51.549 116.014 51.549 116.114 51.449 116.114 C 51.449 116.114 51.449 116.214 51.449 116.214 C 51.449 116.314 51.449 116.314 51.349 116.414 C 51.349 116.414 51.349 116.514 51.349 116.514 C 51.349 116.614 51.349 116.614 51.349 116.714 C 51.349 116.714 51.349 116.714 51.349 116.714 L 51.349 135.614 C 51.349 136.514 52.149 137.314 53.049 137.314 L 72.649 137.314 C 73.549 137.314 74.349 136.514 74.349 135.614 L 74.349 132.214 L 101.749 132.214 L 101.749 214.714 L 91.249 214.714 C 90.349 214.714 89.549 215.514 89.549 216.414 L 89.549 236.714 C 89.549 237.614 90.349 238.414 91.249 238.414 C 92.149 238.414 92.949 237.614 92.949 236.714 L 92.949 218.114 L 95.149 218.114 C 95.149 218.114 95.149 218.114 95.149 218.214 L 95.149 228.614 C 95.149 228.914 95.249 229.114 95.349 229.314 L 95.349 237.614 L 100.849 237.614 C 100.849 237.614 102.049 237.114 102.049 232.014 C 102.049 228.714 109.949 223.114 115.349 219.714 L 115.349 221.714 L 105.349 230.714 C 104.949 231.114 104.949 231.714 105.249 232.114 C 105.449 232.314 105.749 232.414 106.049 232.414 C 106.249 232.414 106.549 232.314 106.749 232.114 L 115.349 224.314 L 115.349 226.014 C 115.349 226.714 115.949 227.414 116.749 227.414 C 117.449 227.414 118.149 226.814 118.149 226.014 L 118.149 221.814 L 122.449 217.914 L 127.949 217.914 C 128.149 218.014 128.349 218.014 128.549 218.014 C 129.449 218.014 130.249 217.214 130.249 216.314 L 130.249 216.214 C 130.249 215.314 129.449 214.514 128.549 214.514 L 118.049 214.514 L 118.049 147.914 C 118.049 147.814 118.149 147.814 118.149 147.714 L 124.449 132.014 L 218.649 132.014 L 218.949 141.214 C 217.449 141.714 216.349 143.114 216.349 144.814 C 216.349 146.114 217.049 147.314 217.949 147.914 L 217.949 158.614 L 218.649 158.614 L 219.349 162.914 C 219.149 163.314 218.949 164.414 217.849 164.714 C 217.449 164.814 216.949 164.814 216.449 164.714 C 216.649 164.514 216.749 164.214 216.749 163.814 C 216.749 162.914 216.049 162.214 215.149 162.214 C 214.249 162.214 213.549 162.914 213.549 163.814 C 213.549 164.314 213.749 164.714 214.049 165.014 C 214.049 165.114 214.149 165.114 214.249 165.214 C 215.249 165.914 216.249 166.214 217.149 166.214 C 217.549 166.214 217.849 166.114 218.249 166.014 C 220.149 165.414 221.049 163.314 221.049 163.314 C 221.049 163.214 221.649 163.114 221.649 163.114 L 222.249 158.614 L 222.849 158.614 L 222.849 149.814 L 222.649 149.814 L 222.649 148.014 C 223.449 147.314 224.049 146.214 224.049 145.014 C 224.049 143.214 222.749 141.614 221.049 141.214 L 220.749 132.114 L 221.349 132.114 C 221.749 132.114 222.049 132.014 222.249 131.714 C 222.349 131.714 222.349 131.714 222.449 131.714 C 222.749 131.714 223.149 131.614 223.449 131.414 L 240.749 119.514 C 241.349 119.314 241.549 118.714 241.449 118.014 Z  M 109.249 84.414 L 112.749 96.614 L 109.949 100.014 L 106.849 96.214 L 109.249 84.414 Z  M 105.049 120.014 L 108.449 124.114 L 104.649 128.714 L 104.649 119.914 C 104.849 119.914 104.949 120.014 105.049 120.014 Z  M 104.649 117.114 L 104.649 108.414 L 108.549 113.214 L 105.449 117.014 L 104.649 117.114 Z  M 109.749 125.714 L 112.949 129.514 L 106.649 129.514 L 109.749 125.714 Z  M 107.349 119.614 L 112.549 119.114 L 109.749 122.514 L 107.349 119.614 Z  M 108.349 116.814 L 109.949 114.914 L 111.349 116.614 L 108.349 116.814 Z  M 106.449 107.414 L 109.949 103.214 L 113.449 107.414 L 109.949 111.614 L 106.449 107.414 Z  M 104.649 106.314 L 106.249 98.714 L 108.549 101.514 L 104.649 106.314 Z  M 71.149 120.314 L 62.849 121.114 C 62.149 121.214 61.549 121.814 61.649 122.614 C 61.749 123.314 62.349 123.814 62.949 123.814 C 62.949 123.814 63.049 123.814 63.049 123.814 L 71.049 123.114 L 71.049 129.614 L 63.649 129.614 C 62.949 129.614 62.249 130.214 62.249 131.014 C 62.249 131.714 62.849 132.414 63.649 132.414 L 71.049 132.414 L 71.049 134.114 L 54.749 134.114 L 54.749 118.914 L 71.049 118.914 L 71.049 120.314 L 71.149 120.314 Z  M 83.049 129.514 L 74.549 129.514 L 74.549 122.714 L 83.849 121.814 L 86.549 125.114 L 83.149 129.214 C 83.149 129.314 83.149 129.414 83.049 129.514 Z  M 86.349 121.614 L 89.849 121.314 L 87.949 123.614 L 86.349 121.614 Z  M 85.649 129.514 L 87.949 126.714 L 90.249 129.514 L 85.649 129.514 Z  M 89.249 125.114 L 92.649 121.014 C 92.649 121.014 92.649 121.014 92.649 120.914 L 93.149 120.914 L 96.249 124.714 L 92.549 129.214 L 89.249 125.114 Z  M 95.549 120.714 L 99.849 120.314 L 97.549 123.114 L 95.549 120.714 Z  M 94.949 129.514 L 97.549 126.314 L 100.149 129.514 L 94.949 129.514 Z  M 101.949 128.414 L 98.849 124.714 L 101.949 121.014 L 101.949 128.414 Z  M 102.049 105.914 C 102.049 106.014 102.049 106.114 102.049 106.214 L 102.049 117.414 L 74.649 120.014 L 74.649 117.014 C 74.649 116.114 73.849 115.314 72.949 115.314 L 59.049 115.314 L 106.649 84.414 L 102.049 105.914 Z  M 105.949 199.214 C 105.949 199.214 105.949 199.214 105.949 199.214 C 105.949 199.114 105.949 199.114 105.949 199.214 L 110.249 194.314 L 114.549 199.214 C 114.549 199.214 114.549 199.214 114.549 199.214 C 114.549 199.214 114.549 199.214 114.549 199.214 L 110.149 204.214 L 105.949 199.214 Z  M 108.849 205.714 L 104.649 210.414 L 104.649 200.814 L 108.849 205.714 Z  M 104.649 197.514 L 104.649 187.914 L 108.849 192.714 L 104.649 197.514 Z  M 105.949 186.314 C 105.949 186.314 105.949 186.314 105.949 186.314 C 105.949 186.314 105.949 186.314 105.949 186.314 L 110.249 181.414 L 114.549 186.314 C 114.549 186.314 114.549 186.314 114.549 186.314 C 114.549 186.314 114.549 186.314 114.549 186.314 L 110.249 191.214 L 105.949 186.314 Z  M 104.649 184.614 L 104.649 175.014 L 108.849 179.814 L 104.649 184.614 Z  M 105.949 173.414 C 105.949 173.414 105.949 173.414 105.949 173.414 C 105.949 173.414 105.949 173.414 105.949 173.414 L 110.249 168.514 L 114.549 173.414 C 114.549 173.414 114.549 173.414 114.549 173.414 C 114.549 173.414 114.549 173.414 114.549 173.414 L 110.249 178.314 L 105.949 173.414 Z  M 104.649 171.814 L 104.649 162.214 L 108.849 167.014 L 104.649 171.814 Z  M 105.949 160.514 C 105.949 160.514 105.949 160.514 105.949 160.514 C 105.949 160.514 105.949 160.514 105.949 160.514 L 110.249 155.614 L 114.549 160.514 C 114.549 160.514 114.549 160.514 114.549 160.514 C 114.549 160.514 114.549 160.514 114.549 160.514 L 110.249 165.414 L 105.949 160.514 Z  M 104.649 158.914 L 104.649 149.314 L 108.849 154.114 L 104.649 158.914 Z  M 105.949 147.714 C 105.949 147.714 105.949 147.714 105.949 147.714 C 105.949 147.714 105.949 147.714 105.949 147.714 L 110.249 142.814 L 114.549 147.714 C 114.549 147.714 114.549 147.714 114.549 147.714 C 114.549 147.714 114.549 147.714 114.549 147.714 L 110.249 152.614 L 105.949 147.714 Z  M 104.649 146.014 L 104.649 136.414 L 108.849 141.214 L 104.649 146.014 Z  M 115.549 214.714 L 104.749 214.714 L 104.749 213.414 L 110.249 207.214 L 115.549 213.514 L 115.549 214.714 Z  M 115.549 210.414 L 111.549 205.714 L 115.549 201.214 L 115.549 210.414 Z  M 115.549 197.114 L 111.649 192.714 L 115.549 188.314 L 115.549 197.114 Z  M 115.549 184.314 L 111.649 179.914 L 115.549 175.514 L 115.549 184.314 Z  M 115.549 171.414 L 111.649 167.014 L 115.549 162.614 L 115.549 171.414 Z  M 115.549 158.514 L 111.649 154.114 L 115.549 149.714 L 115.549 158.514 Z  M 115.549 145.614 L 111.649 141.214 L 115.549 136.814 L 115.549 145.614 Z  M 115.549 134.514 C 115.249 134.414 114.849 134.614 114.649 134.814 L 110.349 139.714 L 106.049 134.814 C 105.749 134.414 105.149 134.414 104.749 134.614 L 104.749 132.214 L 115.549 132.214 L 115.549 134.514 L 115.549 134.514 Z  M 115.549 129.514 L 115.549 129.514 C 115.449 129.414 115.349 129.314 115.349 129.214 L 111.149 124.114 L 114.549 120.014 C 114.649 120.014 114.649 120.014 114.749 120.014 C 114.949 120.014 115.249 119.914 115.349 119.814 C 115.449 119.714 115.449 119.714 115.549 119.614 L 115.549 129.514 Z  M 115.549 116.114 L 113.749 116.314 L 111.249 113.314 L 115.449 108.214 C 115.449 108.214 115.449 108.114 115.549 108.114 L 115.549 116.114 L 115.549 116.114 Z  M 115.549 106.814 C 115.449 106.714 115.449 106.714 115.549 106.814 L 111.249 101.614 L 113.449 99.014 L 115.549 106.414 L 115.549 106.814 L 115.549 106.814 Z  M 119.549 218.114 L 118.249 219.314 L 118.249 218.114 L 119.549 218.114 Z  M 118.149 105.814 L 115.449 96.414 C 115.749 96.014 115.649 95.414 115.249 95.014 C 115.149 94.914 115.049 94.914 115.049 94.914 L 111.449 82.314 L 223.149 115.214 C 222.749 115.514 222.349 115.814 221.949 116.114 C 221.749 116.014 221.549 116.014 221.349 116.014 L 118.149 116.014 L 118.149 106.214 C 118.249 106.114 118.249 105.914 118.149 105.814 Z  M 220.049 118.714 L 216.949 122.514 L 213.849 118.714 L 220.049 118.714 Z  M 209.749 118.714 L 206.649 122.514 L 203.549 118.714 L 209.749 118.714 Z  M 199.449 118.714 L 196.349 122.514 L 193.249 118.714 L 199.449 118.714 Z  M 189.149 118.714 L 186.049 122.514 L 182.949 118.714 L 189.149 118.714 Z  M 178.749 118.714 L 175.649 122.514 L 172.549 118.714 L 178.749 118.714 Z  M 168.449 118.714 L 165.349 122.514 L 162.249 118.714 L 168.449 118.714 Z  M 158.149 118.714 L 155.049 122.514 L 151.949 118.714 L 158.149 118.714 Z  M 147.749 118.714 L 144.649 122.514 L 141.549 118.714 L 147.749 118.714 Z  M 137.449 118.714 L 134.349 122.514 L 131.249 118.714 L 137.449 118.714 Z  M 120.849 118.714 L 127.149 118.714 L 124.049 122.514 L 120.849 118.714 Z  M 122.649 124.114 L 118.449 129.214 C 118.349 129.314 118.349 129.414 118.249 129.514 L 118.149 129.514 L 118.149 118.714 L 118.249 118.714 C 118.249 118.814 118.349 118.914 118.449 119.014 L 122.649 124.114 Z  M 118.249 142.714 L 118.249 132.214 L 122.449 132.214 L 118.249 142.714 Z  M 123.549 129.514 L 120.849 129.514 L 124.049 125.714 L 124.849 126.614 L 123.549 129.514 Z  M 125.349 124.114 L 126.249 123.014 L 125.649 124.414 L 125.349 124.114 Z  M 125.749 129.514 L 126.249 128.414 L 127.149 129.514 L 125.749 129.514 Z  M 127.049 126.214 L 129.549 119.914 L 132.949 124.014 L 129.149 128.714 L 127.049 126.214 Z  M 131.149 129.514 L 134.349 125.714 L 137.549 129.514 L 131.149 129.514 Z  M 135.649 124.114 L 139.449 119.414 L 143.249 124.114 L 139.449 128.814 L 135.649 124.114 Z  M 141.449 129.514 L 144.549 125.714 L 147.749 129.514 L 141.449 129.514 Z  M 145.949 124.114 L 149.749 119.414 L 153.549 124.114 L 149.749 128.814 L 145.949 124.114 Z  M 151.849 129.514 L 155.049 125.714 L 158.249 129.514 L 151.849 129.514 Z  M 156.249 124.114 L 160.049 119.414 L 163.849 124.114 L 160.049 128.814 L 156.249 124.114 Z  M 162.149 129.514 L 165.349 125.714 L 168.549 129.514 L 162.149 129.514 Z  M 166.649 124.114 L 170.449 119.414 L 174.249 124.114 L 170.449 128.814 L 166.649 124.114 Z  M 172.449 129.514 L 175.649 125.714 L 178.849 129.514 L 172.449 129.514 Z  M 176.949 124.114 L 180.749 119.414 L 184.549 124.114 L 180.749 128.814 L 176.949 124.114 Z  M 182.849 129.514 L 186.049 125.714 L 189.249 129.514 L 182.849 129.514 Z  M 187.249 124.114 L 191.049 119.414 L 194.849 124.114 L 191.049 128.814 L 187.249 124.114 Z  M 193.149 129.514 L 196.349 125.714 L 199.549 129.514 L 193.149 129.514 Z  M 197.649 124.114 L 201.449 119.414 L 205.249 124.114 L 201.449 128.814 L 197.649 124.114 Z  M 203.449 129.514 L 206.649 125.714 L 209.849 129.514 L 203.449 129.514 Z  M 207.949 124.114 L 211.749 119.414 L 215.549 124.114 L 211.749 128.814 L 207.949 124.114 Z  M 218.849 129.514 L 213.849 129.514 L 217.049 125.714 L 219.649 128.814 C 219.149 128.914 218.949 129.214 218.849 129.514 Z  M 222.249 149.914 L 218.849 149.914 L 218.849 148.614 C 219.349 148.814 219.849 148.914 220.449 148.914 C 221.149 148.914 221.749 148.714 222.249 148.414 L 222.249 149.914 L 222.249 149.914 Z  M 221.249 143.514 C 221.849 143.814 222.149 144.414 222.149 145.114 C 222.149 146.114 221.349 146.914 220.349 146.914 C 219.349 146.914 218.549 146.114 218.549 145.114 C 218.549 144.514 218.849 144.014 219.249 143.714 C 219.349 144.114 219.749 144.414 220.249 144.414 C 220.249 144.414 220.249 144.414 220.249 144.414 C 220.749 144.414 221.249 144.014 221.249 143.514 Z  M 221.949 128.514 L 218.249 124.014 L 220.249 121.614 C 220.649 124.014 222.449 125.914 224.749 126.514 L 221.949 128.514 Z  M 229.749 123.214 L 227.749 124.514 C 227.349 124.614 226.849 124.714 226.449 124.714 C 224.149 124.714 222.249 122.814 222.249 120.514 C 222.249 119.914 222.349 119.414 222.549 118.914 C 222.649 118.814 222.649 118.714 222.649 118.614 C 223.349 117.214 224.749 116.314 226.449 116.314 C 226.749 116.314 226.949 116.314 227.149 116.414 L 228.049 116.714 C 229.549 117.314 230.649 118.814 230.649 120.614 C 230.649 121.514 230.349 122.514 229.749 123.214 Z  M 232.649 121.214 C 232.649 121.014 232.649 120.814 232.649 120.614 C 232.649 119.614 232.449 118.714 232.049 117.914 L 235.849 119.014 L 232.649 121.214 Z " fill-rule="evenodd" fill="rgb(57,53,91)"/></g><g><path d=" M 252.349 294.114 L 117.149 294.114 C 112.149 294.114 107.049 290.414 105.449 285.614 L 63.649 157.014 C 62.149 152.314 64.049 146.214 68.149 143.314 L 78.449 135.814 C 80.249 134.514 82.749 134.914 84.049 136.714 C 85.349 138.514 84.949 141.014 83.149 142.314 L 72.849 149.814 C 71.549 150.714 70.849 153.114 71.349 154.614 L 113.149 283.214 C 113.649 284.714 115.649 286.114 117.149 286.114 L 252.349 286.114 C 253.949 286.114 255.949 284.614 256.349 283.214 L 258.049 278.014 C 258.749 275.914 260.949 274.814 263.049 275.414 C 265.149 276.114 266.349 278.314 265.649 280.414 L 263.949 285.614 C 262.449 290.414 257.349 294.114 252.349 294.114 Z " fill="rgb(57,53,91)"/></g><g><path d=" M 296.449 176.714 C 296.049 176.714 295.649 176.614 295.249 176.514 C 293.149 175.814 291.949 173.614 292.649 171.514 L 298.149 154.714 C 298.649 153.214 297.849 150.914 296.649 149.914 L 187.249 70.414 C 185.949 69.514 183.549 69.514 182.249 70.414 L 158.449 87.714 C 156.649 89.014 154.149 88.614 152.849 86.814 C 151.549 85.014 151.949 82.514 153.749 81.214 L 177.549 63.914 C 181.549 61.014 187.949 61.014 191.949 63.914 L 301.349 143.414 C 305.349 146.314 307.349 152.414 305.849 157.114 L 300.349 173.914 C 299.749 175.714 298.149 176.714 296.449 176.714 Z " fill="rgb(57,53,91)"/></g></g><path d=" M 231.055 304.61 L 231.055 304.61 L 231.055 304.61 Q 231.055 304.058 231.307 303.638 L 231.307 303.638 L 231.307 303.638 Q 231.559 303.218 232.039 303.218 L 232.039 303.218 L 242.191 303.218 L 242.191 303.218 Q 242.671 303.218 242.923 303.638 L 242.923 303.638 L 242.923 303.638 Q 243.175 304.058 243.175 304.61 L 243.175 304.61 L 243.175 304.61 Q 243.175 305.186 242.911 305.606 L 242.911 305.606 L 242.911 305.606 Q 242.647 306.026 242.191 306.026 L 242.191 306.026 L 238.687 306.026 L 238.687 319.778 L 238.687 319.778 Q 238.687 320.234 238.219 320.498 L 238.219 320.498 L 238.219 320.498 Q 237.751 320.762 237.127 320.762 L 237.127 320.762 L 237.127 320.762 Q 236.479 320.762 236.023 320.498 L 236.023 320.498 L 236.023 320.498 Q 235.567 320.234 235.567 319.778 L 235.567 319.778 L 235.567 306.026 L 232.039 306.026 L 232.039 306.026 Q 231.583 306.026 231.319 305.618 L 231.319 305.618 L 231.319 305.618 Q 231.055 305.21 231.055 304.61 Z  M 207.215 319.778 L 207.215 319.778 L 207.215 304.202 L 207.215 304.202 Q 207.215 303.746 207.623 303.482 L 207.623 303.482 L 207.623 303.482 Q 208.031 303.218 208.583 303.218 L 208.583 303.218 L 216.959 303.218 L 216.959 303.218 Q 217.439 303.218 217.679 303.614 L 217.679 303.614 L 217.679 303.614 Q 217.919 304.01 217.919 304.562 L 217.919 304.562 L 217.919 304.562 Q 217.919 305.138 217.667 305.546 L 217.667 305.546 L 217.667 305.546 Q 217.415 305.954 216.959 305.954 L 216.959 305.954 L 210.335 305.954 L 210.335 310.754 L 214.007 310.754 L 214.007 310.754 Q 214.463 310.754 214.715 311.114 L 214.715 311.114 L 214.715 311.114 Q 214.967 311.474 214.967 312.002 L 214.967 312.002 L 214.967 312.002 Q 214.967 312.482 214.715 312.842 L 214.715 312.842 L 214.715 312.842 Q 214.463 313.202 214.007 313.202 L 214.007 313.202 L 210.335 313.202 L 210.335 319.778 L 210.335 319.778 Q 210.335 320.234 209.867 320.498 L 209.867 320.498 L 209.867 320.498 Q 209.399 320.762 208.775 320.762 L 208.775 320.762 L 208.775 320.762 Q 208.127 320.762 207.671 320.498 L 207.671 320.498 L 207.671 320.498 Q 207.215 320.234 207.215 319.778 Z  M 180.735 319.778 L 180.735 319.778 L 180.735 304.178 L 180.735 304.178 Q 180.735 303.794 181.023 303.506 L 181.023 303.506 L 181.023 303.506 Q 181.311 303.218 181.743 303.218 L 181.743 303.218 L 186.495 303.218 L 186.495 303.218 Q 192.183 303.218 192.183 308.234 L 192.183 308.234 L 192.183 308.234 Q 192.183 310.202 191.331 311.402 L 191.331 311.402 L 191.331 311.402 Q 190.479 312.602 189.039 313.034 L 189.039 313.034 L 192.183 318.866 L 192.183 318.866 Q 192.303 319.01 192.303 319.25 L 192.303 319.25 L 192.303 319.25 Q 192.303 319.85 191.679 320.366 L 191.679 320.366 L 191.679 320.366 Q 191.055 320.882 190.359 320.882 L 190.359 320.882 L 190.359 320.882 Q 189.663 320.882 189.279 320.138 L 189.279 320.138 L 185.871 313.514 L 183.855 313.514 L 183.855 319.778 L 183.855 319.778 Q 183.855 320.234 183.399 320.498 L 183.399 320.498 L 183.399 320.498 Q 182.943 320.762 182.295 320.762 L 182.295 320.762 L 182.295 320.762 Q 181.671 320.762 181.203 320.498 L 181.203 320.498 L 181.203 320.498 Q 180.735 320.234 180.735 319.778 Z  M 183.855 305.954 L 183.855 311.066 L 186.495 311.066 L 186.495 311.066 Q 189.063 311.066 189.063 308.522 L 189.063 308.522 L 189.063 308.522 Q 189.063 305.954 186.495 305.954 L 186.495 305.954 L 183.855 305.954 Z  M 155.215 319.778 L 155.215 319.778 L 155.215 304.202 L 155.215 304.202 Q 155.215 303.746 155.623 303.482 L 155.623 303.482 L 155.623 303.482 Q 156.031 303.218 156.583 303.218 L 156.583 303.218 L 165.127 303.218 L 165.127 303.218 Q 165.607 303.218 165.859 303.626 L 165.859 303.626 L 165.859 303.626 Q 166.111 304.034 166.111 304.562 L 166.111 304.562 L 166.111 304.562 Q 166.111 305.138 165.847 305.546 L 165.847 305.546 L 165.847 305.546 Q 165.583 305.954 165.127 305.954 L 165.127 305.954 L 158.335 305.954 L 158.335 310.754 L 161.983 310.754 L 161.983 310.754 Q 162.439 310.754 162.703 311.126 L 162.703 311.126 L 162.703 311.126 Q 162.967 311.498 162.967 312.002 L 162.967 312.002 L 162.967 312.002 Q 162.967 312.458 162.715 312.83 L 162.715 312.83 L 162.715 312.83 Q 162.463 313.202 161.983 313.202 L 161.983 313.202 L 158.335 313.202 L 158.335 318.026 L 165.127 318.026 L 165.127 318.026 Q 165.583 318.026 165.847 318.434 L 165.847 318.434 L 165.847 318.434 Q 166.111 318.842 166.111 319.418 L 166.111 319.418 L 166.111 319.418 Q 166.111 319.946 165.859 320.354 L 165.859 320.354 L 165.859 320.354 Q 165.607 320.762 165.127 320.762 L 165.127 320.762 L 156.583 320.762 L 156.583 320.762 Q 156.031 320.762 155.623 320.498 L 155.623 320.498 L 155.623 320.498 Q 155.215 320.234 155.215 319.778 Z  M 119.999 304.466 L 119.999 304.466 L 119.999 304.466 Q 119.999 303.962 120.647 303.59 L 120.647 303.59 L 120.647 303.59 Q 121.295 303.218 121.991 303.218 L 121.991 303.218 L 121.991 303.218 Q 122.855 303.218 123.023 303.842 L 123.023 303.842 L 126.815 316.85 L 128.855 308.498 L 128.855 308.498 Q 129.071 307.634 130.391 307.634 L 130.391 307.634 L 130.391 307.634 Q 131.687 307.634 131.903 308.498 L 131.903 308.498 L 133.943 316.85 L 137.735 303.842 L 137.735 303.842 Q 137.903 303.218 138.767 303.218 L 138.767 303.218 L 138.767 303.218 Q 139.463 303.218 140.111 303.59 L 140.111 303.59 L 140.111 303.59 Q 140.759 303.962 140.759 304.466 L 140.759 304.466 L 140.759 304.466 Q 140.759 304.61 140.711 304.754 L 140.711 304.754 L 135.959 319.85 L 135.959 319.85 Q 135.599 320.906 133.919 320.906 L 133.919 320.906 L 133.919 320.906 Q 133.199 320.906 132.623 320.63 L 132.623 320.63 L 132.623 320.63 Q 132.047 320.354 131.927 319.85 L 131.927 319.85 L 130.391 313.37 L 128.831 319.85 L 128.831 319.85 Q 128.711 320.354 128.135 320.63 L 128.135 320.63 L 128.135 320.63 Q 127.559 320.906 126.839 320.906 L 126.839 320.906 L 126.839 320.906 Q 126.095 320.906 125.519 320.63 L 125.519 320.63 L 125.519 320.63 Q 124.943 320.354 124.799 319.85 L 124.799 319.85 L 120.047 304.754 L 120.047 304.754 Q 119.999 304.61 119.999 304.466 Z " fill="rgb(57,53,91)"/></g></g></svg>