<?xml version="1.0" encoding="UTF-8" standalone="no"?><!-- Generator: Gravit.io --><svg xmlns="http://www.w3.org/2000/svg" xmlns:xlink="http://www.w3.org/1999/xlink" style="isolation:isolate" viewBox="0 0 263 265" width="263pt" height="265pt"><defs><clipPath id="_clipPath_ZtP10R5NR9GkRlEh9Q6jnE9kTAVcPOWo"><rect width="263" height="265"/></clipPath></defs><g clip-path="url(#_clipPath_ZtP10R5NR9GkRlEh9Q6jnE9kTAVcPOWo)"><g><g><g><path d=" M 221.2 198.775 C 221.2 198.775 208.9 201.875 207 197.975 C 205.1 194.075 210.3 187.075 207.7 183.075 C 205.1 179.075 203.1 173.175 191.9 184.775 L 179.7 185.475 C 179.7 185.475 155.3 180.175 149.3 181.475 C 143.4 182.775 75.7 208.575 75.7 208.575 L 80 195.675 L 237.1 133.975 L 221.2 198.775 Z " fill="rgb(57,53,91)"/><path d=" M 113.6 90.975 L 121.4 87.975 L 136.2 92.775 L 130.4 96.075 L 130.4 106.975 L 112.3 106.975 L 110 91.475" fill="rgb(162,141,194)"/></g><path d=" M 218.3 200.375 C 223.6 156.275 258.5 121.475 258.9 121.175 C 259.5 120.675 259.2 119.475 259.1 119.075 C 258.5 119.175 257.7 118.975 257.1 119.075 C 196.8 129.375 145.2 152.175 112 168.675 C 84.4 182.375 61.5 196.375 54.3 201.075 L 59 213.975 C 59 213.975 186.7 150.275 226 143.175 C 226 143.175 217.3 169.175 214.7 188.575 C 216 193.875 212.7 199.975 218.3 200.375 Z " fill="rgb(57,53,91)"/></g><g><path d=" M 164.5 120.575 C 164.7 120.675 164.9 120.675 165.2 120.675 C 165.8 120.575 166.4 120.175 166.6 119.475 C 166.9 118.575 166.3 117.675 165.5 117.475 L 146.5 111.975 C 146.3 111.875 146.1 111.875 145.9 111.875 L 122.3 113.675 C 121.4 113.775 120.7 114.575 120.8 115.475 C 120.9 116.375 121.7 117.075 122.6 116.975 L 145.9 115.175 L 164.5 120.575 Z " fill-rule="evenodd" fill="rgb(57,53,91)"/><path d=" M 44.6 175.675 C 44 176.075 43.8 176.975 44.2 177.575 L 49 185.175 C 49.4 185.775 50.1 185.975 50.7 185.675 C 50.8 185.675 50.9 185.575 50.9 185.575 C 51.5 185.175 51.7 184.275 51.3 183.675 L 46.5 176.075 C 46.1 175.475 45.2 175.275 44.6 175.675 Z " fill-rule="evenodd" fill="rgb(57,53,91)"/><path d=" M 102.2 141.275 L 75.3 166.475 C 70 171.575 72 173.575 72 173.575 L 102.3 153.675 C 102.3 153.675 101 148.475 103.4 145.075 C 105.8 141.675 102.2 141.275 102.2 141.275 Z " fill-rule="evenodd" fill="rgb(57,53,91)"/><path d=" M 112.8 156.075 C 89.4 169.075 50 195.675 50.3 198.275 C 50.3 198.475 87.9 173.875 113.7 163.075 C 115.4 162.475 112.8 156.075 112.8 156.075 Z " fill-rule="evenodd" fill="rgb(57,53,91)"/><path d=" M 117.6 91.475 C 117.6 91.475 117.6 91.475 124.3 93.375 C 125.8 93.775 125 98.475 125 98.475 C 125 98.475 124.4 100.975 118.2 99.875 L 119.1 107.075 L 111 107.275 L 109.5 95.275 L 119.2 98.375 C 119.2 98.375 121.9 97.875 121 95.175 L 112.5 92.775 L 117.6 91.475 Z " fill-rule="evenodd" fill="rgb(57,53,91)"/><path d=" M 177.7 140.375 L 174 141.175 L 173.5 132.275 L 176.6 131.875 L 177.7 140.375 Z " fill-rule="evenodd" fill="rgb(57,53,91)"/><path d=" M 171.8 133.175 C 171.9 133.175 171.9 133.175 171.9 133.175 C 171.9 133.175 171.8 133.175 171.8 133.175 Z " fill="rgb(57,53,91)"/><path d=" M 171.5 133.075 C 171.6 133.075 171.6 133.075 171.6 133.075 C 171.6 133.175 171.6 133.175 171.5 133.075 Z " fill="rgb(57,53,91)"/><path d=" M 171.2 133.075 C 171.3 133.075 171.3 133.075 171.4 133.075 C 171.3 133.075 171.3 133.075 171.2 133.075 Z " fill="rgb(57,53,91)"/><path d=" M 170.7 132.875 C 170.8 132.875 170.9 132.875 171.1 132.975 C 170.9 132.975 170.8 132.975 170.7 132.875 Z " fill="rgb(57,53,91)"/><path d=" M 170.9 138.575 C 170.8 138.575 170.8 138.575 170.7 138.675 C 170.8 138.575 170.8 138.575 170.9 138.575 Z " fill="rgb(57,53,91)"/><line x1="171.9" y1="138.275" x2="171.8" y2="138.275"/><path d=" M 168.7 139.275 C 168.6 139.275 168.6 139.275 168.5 139.375 C 168.6 139.275 168.6 139.275 168.7 139.275 Z " fill="rgb(57,53,91)"/><path d=" M 167.4 139.675 C 167.3 139.675 167.3 139.775 167.2 139.775 C 167.2 139.775 167.3 139.675 167.4 139.675 Z " fill="rgb(57,53,91)"/><path d=" M 169.8 138.875 C 169.7 138.875 169.7 138.875 169.8 138.875 C 169.7 138.875 169.7 138.875 169.8 138.875 Z " fill="rgb(57,53,91)"/><path d=" M 170.2 132.875 C 170.3 132.875 170.4 132.875 170.5 132.975 C 170.4 132.875 170.3 132.875 170.2 132.875 Z " fill="rgb(57,53,91)"/><path d=" M 156.9 131.475 C 157.9 131.475 158.9 131.575 159.8 131.575 C 158.9 131.575 157.9 131.475 156.9 131.475 Z " fill="rgb(57,53,91)"/><path d=" M 169.4 132.675 C 169.6 132.675 169.8 132.775 170 132.775 C 169.8 132.775 169.6 132.675 169.4 132.675 Z " fill="rgb(57,53,91)"/><line x1="166" y1="140.175" x2="165.9" y2="140.175"/><path d=" M 160.1 131.675 C 161 131.775 161.9 131.775 162.8 131.875 C 161.9 131.775 161 131.675 160.1 131.675 Z " fill="rgb(57,53,91)"/><path d=" M 147.7 131.575 C 148 131.575 148.4 131.575 148.7 131.575 C 148.4 131.575 148 131.575 147.7 131.575 Z " fill="rgb(57,53,91)"/><path d=" M 149.4 131.475 C 150.6 131.475 151.7 131.375 152.8 131.375 C 151.7 131.475 150.6 131.475 149.4 131.475 Z " fill="rgb(57,53,91)"/><path d=" M 153.3 131.475 C 154.4 131.475 155.5 131.475 156.5 131.475 C 155.5 131.475 154.4 131.475 153.3 131.475 Z " fill="rgb(57,53,91)"/><path d=" M 167.6 132.375 C 167.9 132.475 168.3 132.475 168.6 132.575 C 168.3 132.475 168 132.475 167.6 132.375 Z " fill="rgb(57,53,91)"/><path d=" M 168.7 132.575 C 168.9 132.575 169 132.675 169.1 132.675 C 169 132.575 168.9 132.575 168.7 132.575 Z " fill="rgb(57,53,91)"/><path d=" M 163 131.875 C 163.8 131.975 164.6 132.075 165.3 132.075 C 164.6 131.975 163.8 131.875 163 131.875 Z " fill="rgb(57,53,91)"/><path d=" M 166.8 132.275 C 167 132.275 167.2 132.375 167.4 132.375 C 167.2 132.375 167 132.275 166.8 132.275 Z " fill="rgb(57,53,91)"/><path d=" M 165.5 132.075 C 166 132.175 166.4 132.175 166.8 132.275 C 166.4 132.175 165.9 132.175 165.5 132.075 Z " fill="rgb(57,53,91)"/><path d=" M 158.3 143.175 C 158.2 143.175 158.1 143.275 158.1 143.275 C 158.1 143.175 158.2 143.175 158.3 143.175 Z " fill="rgb(57,53,91)"/><path d=" M 159.9 142.475 C 159.9 142.475 159.8 142.475 159.8 142.575 C 159.8 142.575 159.9 142.475 159.9 142.475 Z " fill="rgb(57,53,91)"/><path d=" M 151.2 146.075 C 151.1 146.075 151.1 146.175 151 146.175 C 151.1 146.075 151.1 146.075 151.2 146.075 Z " fill="rgb(57,53,91)"/><path d=" M 161.5 141.875 C 161.5 141.875 161.4 141.875 161.4 141.975 C 161.4 141.875 161.4 141.875 161.5 141.875 Z " fill="rgb(57,53,91)"/><line x1="154.7" y1="144.575" x2="154.7" y2="144.575"/><path d=" M 153 145.275 C 152.9 145.275 152.8 145.375 152.8 145.375 C 152.9 145.375 153 145.275 153 145.275 Z " fill="rgb(57,53,91)"/><path d=" M 163.1 141.275 C 163 141.275 162.9 141.375 162.9 141.375 C 162.9 141.275 163 141.275 163.1 141.275 Z " fill="rgb(57,53,91)"/><path d=" M 149.3 146.875 L 147.4 132.175 C 147.5 131.975 147.5 131.775 147.6 131.675 C 139.9 132.075 130.5 133.275 119.9 135.975 L 122.8 158.575 C 122.9 158.475 136.2 152.375 149.3 146.875 C 149.4 146.775 149.3 146.775 149.3 146.875 Z " fill="rgb(57,53,91)"/><path d=" M 156.5 143.875 C 156.4 143.875 156.4 143.875 156.3 143.975 C 156.4 143.875 156.4 143.875 156.5 143.875 Z " fill="rgb(57,53,91)"/><path d=" M 164.6 140.675 C 164.5 140.675 164.5 140.675 164.4 140.775 C 164.5 140.675 164.6 140.675 164.6 140.675 Z " fill="rgb(57,53,91)"/><path d=" M 156.3 143.975 C 155.8 144.175 155.3 144.375 154.7 144.575 C 155.3 144.375 155.8 144.175 156.3 143.975 Z " fill="rgb(57,53,91)"/><path d=" M 165.3 132.075 C 165.4 132.075 165.4 132.075 165.5 132.075 C 165.4 132.075 165.3 132.075 165.3 132.075 Z " fill="rgb(57,53,91)"/><line x1="166.8" y1="132.275" x2="166.8" y2="132.275"/><path d=" M 167.4 132.375 C 167.5 132.375 167.5 132.375 167.6 132.375 C 167.5 132.375 167.5 132.375 167.4 132.375 Z " fill="rgb(57,53,91)"/><path d=" M 154.7 144.575 C 154.2 144.775 153.6 144.975 153.1 145.275 C 153.6 145.075 154.1 144.875 154.7 144.575 Z " fill="rgb(57,53,91)"/><line x1="168.6" y1="132.575" x2="168.7" y2="132.575"/><path d=" M 151 146.175 C 150.5 146.375 149.9 146.675 149.4 146.875 C 149.9 146.575 150.4 146.375 151 146.175 Z " fill="rgb(57,53,91)"/><path d=" M 148.7 131.575 C 148.9 131.575 149.2 131.575 149.4 131.575 C 149.2 131.475 148.9 131.575 148.7 131.575 Z " fill="rgb(57,53,91)"/><path d=" M 152.8 131.475 C 153 131.475 153.1 131.475 153.3 131.475 C 153.1 131.475 153 131.475 152.8 131.475 Z " fill="rgb(57,53,91)"/><path d=" M 167.2 139.775 C 166.8 139.875 166.4 140.075 166 140.175 C 166.4 140.075 166.8 139.875 167.2 139.775 Z " fill="rgb(57,53,91)"/><path d=" M 159.8 131.575 C 159.9 131.575 160 131.575 160.1 131.575 C 160 131.575 159.9 131.575 159.8 131.575 Z " fill="rgb(57,53,91)"/><path d=" M 152.8 145.375 C 152.3 145.575 151.7 145.775 151.2 146.075 C 151.7 145.775 152.3 145.575 152.8 145.375 Z " fill="rgb(57,53,91)"/><path d=" M 156.5 131.475 C 156.6 131.475 156.8 131.475 156.9 131.475 C 156.7 131.475 156.6 131.475 156.5 131.475 Z " fill="rgb(57,53,91)"/><path d=" M 162.7 131.775 C 162.8 131.775 162.8 131.775 162.9 131.775 C 162.9 131.875 162.8 131.875 162.7 131.775 Z " fill="rgb(57,53,91)"/><path d=" M 147.7 131.575 L 147.7 131.575 L 147.7 131.575 L 147.7 131.575 Z " fill="rgb(57,53,91)"/><path d=" M 170.7 138.575 C 170.4 138.675 170.1 138.775 169.7 138.875 C 170.1 138.775 170.4 138.675 170.7 138.575 Z " fill="rgb(57,53,91)"/><path d=" M 171.7 138.275 C 171.4 138.375 171.2 138.375 170.9 138.475 C 171.2 138.475 171.5 138.375 171.7 138.275 Z " fill="rgb(57,53,91)"/><path d=" M 169.2 132.675 C 169.3 132.675 169.3 132.675 169.4 132.675 C 169.3 132.675 169.2 132.675 169.2 132.675 Z " fill="rgb(57,53,91)"/><path d=" M 164.4 140.775 C 164 140.975 163.5 141.075 163.1 141.275 C 163.6 141.075 164 140.875 164.4 140.775 Z " fill="rgb(57,53,91)"/><path d=" M 165.8 140.275 C 165.4 140.375 165 140.575 164.6 140.675 C 165 140.475 165.4 140.375 165.8 140.275 Z " fill="rgb(57,53,91)"/><path d=" M 172.6 138.075 C 172.4 138.175 172.1 138.175 171.8 138.275 C 172.1 138.175 172.4 138.175 172.6 138.075 Z " fill="rgb(57,53,91)"/><path d=" M 169.7 138.875 C 169.4 138.975 169 139.075 168.7 139.175 C 169 139.175 169.4 138.975 169.7 138.875 Z " fill="rgb(57,53,91)"/><path d=" M 168.5 139.275 C 168.1 139.375 167.8 139.475 167.4 139.675 C 167.8 139.575 168.1 139.375 168.5 139.275 Z " fill="rgb(57,53,91)"/><path d=" M 162.9 141.375 C 162.4 141.575 162 141.775 161.5 141.875 C 161.9 141.675 162.4 141.475 162.9 141.375 Z " fill="rgb(57,53,91)"/><path d=" M 170 132.775 C 170.1 132.775 170.1 132.775 170.2 132.775 C 170.1 132.775 170.1 132.775 170 132.775 Z " fill="rgb(57,53,91)"/><path d=" M 170.5 132.875 C 170.6 132.875 170.6 132.875 170.7 132.875 C 170.6 132.875 170.5 132.875 170.5 132.875 Z " fill="rgb(57,53,91)"/><path d=" M 158 143.275 C 157.5 143.475 157 143.675 156.5 143.875 C 157 143.675 157.5 143.475 158 143.275 Z " fill="rgb(57,53,91)"/><path d=" M 159.8 142.575 C 159.3 142.775 158.8 142.975 158.3 143.175 C 158.8 142.975 159.3 142.775 159.8 142.575 Z " fill="rgb(57,53,91)"/><path d=" M 171 132.975 C 171.1 132.975 171.1 132.975 171.2 132.975 C 171.1 133.075 171.1 132.975 171 132.975 Z " fill="rgb(57,53,91)"/><path d=" M 161.3 141.975 C 160.8 142.175 160.4 142.375 159.9 142.575 C 160.4 142.275 160.9 142.075 161.3 141.975 Z " fill="rgb(57,53,91)"/><path d=" M 171.4 133.075 C 171.5 133.075 171.5 133.075 171.6 133.075 C 171.5 133.075 171.4 133.075 171.4 133.075 Z " fill="rgb(57,53,91)"/><path d=" M 171.7 133.175 C 171.7 133.175 171.8 133.175 171.7 133.175 C 171.8 133.175 171.7 133.175 171.7 133.175 Z " fill="rgb(57,53,91)"/><path d=" M 149.3 146.875 C 149.3 146.775 149.4 146.775 149.3 146.875 C 149.9 146.675 150.4 146.375 150.9 146.175 C 151 146.175 151.1 146.075 151.1 146.075 C 151.6 145.875 152.2 145.675 152.7 145.375 C 152.8 145.375 152.9 145.275 152.9 145.275 C 153.4 145.075 154 144.875 154.5 144.575 C 154.5 144.575 154.5 144.575 154.6 144.575 C 155.1 144.375 155.7 144.175 156.2 143.975 C 156.3 143.975 156.3 143.975 156.4 143.875 C 156.9 143.675 157.4 143.475 157.9 143.275 C 158 143.275 158.1 143.175 158.1 143.175 C 158.6 142.975 159.1 142.775 159.6 142.575 C 159.6 142.575 159.7 142.575 159.7 142.475 C 160.2 142.275 160.7 142.075 161.1 141.875 C 161.1 141.875 161.2 141.875 161.2 141.775 C 161.7 141.575 162.1 141.375 162.6 141.275 C 162.7 141.275 162.8 141.175 162.8 141.175 C 163.3 140.975 163.7 140.875 164.1 140.675 C 164.2 140.675 164.2 140.675 164.3 140.575 C 164.7 140.375 165.1 140.275 165.5 140.175 C 165.5 140.175 165.6 140.175 165.6 140.175 C 166 140.075 166.4 139.875 166.8 139.775 C 166.9 139.775 166.9 139.675 167 139.675 C 167.4 139.575 167.7 139.375 168.1 139.275 C 168.2 139.275 168.2 139.275 168.3 139.175 C 168.6 139.075 169 138.975 169.3 138.875 C 169.3 138.875 169.3 138.875 169.4 138.875 C 169.7 138.775 170.1 138.675 170.4 138.575 C 170.5 138.575 170.5 138.575 170.6 138.475 C 170.9 138.375 171.2 138.275 171.4 138.275 C 171.4 138.275 171.5 138.275 171.5 138.275 C 171.8 138.175 172 138.175 172.3 138.075 L 171.6 133.175 C 171.6 133.175 171.5 133.175 171.5 133.175 C 171.5 133.175 171.4 133.175 171.4 133.175 C 171.4 133.175 171.3 133.175 171.3 133.175 C 171.2 133.175 171.2 133.175 171.1 133.175 C 171.1 133.175 171 133.175 170.9 133.175 C 170.8 133.175 170.8 133.175 170.7 133.175 C 170.6 133.175 170.5 133.175 170.3 133.075 C 170.2 133.075 170.2 133.075 170.1 133.075 C 170 133.075 169.9 133.075 169.8 132.975 C 169.7 132.975 169.7 132.975 169.6 132.975 C 169.4 132.975 169.2 132.875 169 132.875 C 168.9 132.875 168.9 132.875 168.8 132.875 C 168.7 132.875 168.5 132.875 168.4 132.775 C 168.4 132.775 168.3 132.775 168.3 132.775 C 168 132.775 167.7 132.675 167.3 132.575 C 167.2 132.575 167.2 132.575 167.1 132.575 C 166.9 132.575 166.7 132.475 166.5 132.475 C 166.5 132.475 166.5 132.475 166.5 132.475 C 166.1 132.375 165.6 132.375 165.2 132.275 C 165.1 132.275 165.1 132.275 165 132.275 C 164.3 132.175 163.5 132.075 162.7 132.075 C 162.6 132.075 162.6 132.075 162.5 132.075 C 161.7 131.975 160.8 131.975 159.8 131.875 C 159.7 131.875 159.6 131.875 159.5 131.875 C 158.6 131.775 157.6 131.775 156.6 131.775 C 156.5 131.775 156.3 131.775 156.2 131.775 C 155.2 131.775 154.1 131.775 153 131.775 C 152.8 131.775 152.7 131.775 152.5 131.775 C 151.4 131.775 150.3 131.775 149.1 131.875 C 148.9 131.875 148.6 131.875 148.4 131.875 C 148.1 131.875 147.7 131.875 147.4 131.875 C 147.4 131.875 147.4 131.875 147.4 131.875 C 147.3 132.075 147.2 132.275 147.2 132.375 L 149.3 146.875 Z " fill="rgb(86,79,113)"/><path d=" M 94.8 141.475 L 92.8 134.675 L 110.9 114.775 L 113.8 114.475 L 115.7 128.575 L 110.2 135.175 L 108.8 131.175 L 94.8 141.475 Z " fill="rgb(57,53,91)"/><path d=" M 99.9 217.775 C 106.8 217.475 113.6 216.875 119.5 213.275 L 74.9 216.275 C 74 216.375 73.3 217.075 73.4 218.075 C 73.5 218.975 74.2 219.675 75.2 219.575 L 88.5 218.675 L 87.5 218.575 C 91.4 217.675 95.6 217.975 99.9 217.775 Z " fill="rgb(57,53,91)"/><path d=" M 261.2 116.575 C 260.8 116.175 260.3 115.975 259.7 116.075 C 258.7 116.275 257.8 116.375 256.8 116.575 C 202.7 126.075 155.2 144.675 121.7 160.575 L 117.9 134.875 C 123.6 133.075 147.9 126.375 173.5 132.275 L 173.6 134.575 C 173.7 135.475 174.4 136.175 175.3 136.175 C 176.2 136.075 176.9 135.375 176.9 134.475 L 176.7 130.875 C 176.7 130.175 176.1 129.575 175.4 129.375 C 174.5 129.175 173.7 128.975 172.8 128.775 L 171 114.475 C 170.9 113.875 170.5 113.275 169.8 113.075 L 146.8 106.075 C 146.6 105.975 146.4 105.975 146.2 105.975 L 132.3 106.975 L 131.1 97.575 L 138.1 95.175 C 138.8 94.975 139.2 94.275 139.2 93.575 C 139.2 92.875 138.7 92.275 138.1 91.975 L 122.6 86.975 L 121.3 76.575 C 121.2 75.675 120.4 75.075 119.5 75.175 C 118.6 75.275 118 76.075 118.1 76.975 L 119.4 87.175 L 109 91.175 C 108.3 91.475 107.9 92.075 107.9 92.775 C 107.9 93.475 108.4 94.075 109.1 94.275 L 118.1 97.075 C 119 97.375 119.9 96.875 120.2 95.975 C 120.5 95.075 120 94.175 119.1 93.875 L 114.6 92.475 L 121.2 89.975 L 132.4 93.575 L 130 94.375 C 129.9 94.375 129.8 94.475 129.7 94.475 C 129.5 94.375 129.3 94.375 129.1 94.475 C 128.2 94.575 127.6 95.375 127.7 96.275 L 129.1 107.075 L 110.2 108.475 C 109.8 108.475 109.4 108.675 109.1 108.975 L 87.9 132.775 C 87.5 133.175 87.4 133.775 87.5 134.375 L 90.6 144.775 L 53.5 180.475 C 53.1 180.875 52.9 181.475 53 181.975 L 54.3 188.475 C 54.5 189.375 55.3 189.875 56.1 189.775 C 56.1 189.775 56.2 189.775 56.2 189.775 C 57.1 189.575 57.7 188.675 57.5 187.875 L 56.3 182.275 L 107.1 133.375 L 109.5 151.975 L 64.3 180.675 C 63.5 181.175 63.3 182.175 63.8 182.975 C 64.3 183.775 65.3 183.975 66.1 183.475 L 112.2 154.275 C 112.7 153.975 113 153.275 113 152.675 L 110 129.775 C 109.9 129.175 109.5 128.675 108.9 128.475 C 108.3 128.275 107.7 128.375 107.2 128.875 L 93.2 142.375 L 90.9 134.475 L 111.1 111.875 L 115 111.575 L 116.8 125.675 C 116.9 126.575 117.7 127.175 118.6 127.075 C 119.5 126.975 120.1 126.175 120 125.275 L 118.2 111.275 L 146.1 109.175 L 167.7 115.775 L 169.3 127.875 C 141.1 122.875 116.5 131.575 115.4 131.975 C 114.7 132.275 114.2 132.975 114.3 133.775 L 118.3 161.275 C 118.3 161.475 118.4 161.675 118.5 161.775 C 115.2 163.375 112 164.975 108.9 166.475 C 72.5 184.775 52 199.175 51.8 199.275 C 51.1 199.775 50.9 200.875 51.4 201.575 C 51.9 202.275 53 202.475 53.7 201.975 C 53.7 201.975 54.9 201.175 57.1 199.675 L 55.3 197.875 C 62.7 192.875 79.6 182.775 118 163.775 C 179.3 133.375 259.7 118.175 259.7 118.175 L 260.2 121.875 C 236.1 140.475 223.9 184.575 220.1 200.775 C 220.5 200.775 220.9 200.675 221.3 200.575 C 221.3 200.575 221.3 200.575 221.4 200.575 C 226.6 157.475 260.5 123.475 260.9 123.075 C 263.5 120.975 262.5 117.975 261.2 116.575 Z " fill="rgb(57,53,91)"/><path d=" M 229.1 163.975 C 223.9 175.075 219.6 187.675 218.1 201.075 C 218.7 201.075 219.4 201.075 220.1 200.975 C 223.9 184.775 236.2 140.675 260.2 122.075 L 261.5 117.475 C 261.5 117.475 179.2 132.675 117.9 163.075 C 79.6 182.075 62.1 192.975 54.7 197.875 L 57.1 199.875 C 64.3 195.175 82.7 183.575 110.5 169.575 C 143.9 152.775 196.4 130.475 257.3 119.775 C 257.9 119.675 258.5 119.575 259.1 119.475 C 259.2 119.875 259.2 120.375 258.6 120.975 C 258.4 121.175 241.2 138.475 229.1 163.975 Z " fill="rgb(57,53,91)"/><path d=" M 134.5 197.975 C 140.6 191.875 150.6 184.475 159.7 186.075 C 166.9 187.275 172.8 193.175 180 192.475 C 183.7 192.075 187.4 191.775 190.4 189.475 C 193.1 187.375 194.3 183.375 196.8 181.375 C 198.4 180.075 200.4 179.575 202.3 179.575 C 201.6 178.575 200.8 177.875 199.9 177.975 C 194.6 178.175 193.6 163.675 198.4 159.075 C 203.1 154.475 199.1 154.575 199.1 154.575 C 168.4 161.175 81.4 204.075 76.2 208.075 C 68.7 213.875 76.7 212.975 124.2 208.075 C 127.9 204.975 131.2 201.475 134.5 197.975 Z " fill="rgb(57,53,91)"/><path d=" M 204.7 185.375 C 204.7 183.475 201.4 183.175 201.4 185.275 C 201.4 190.475 199.1 195.375 194.7 198.375 C 189.2 202.075 182.3 200.875 176.5 198.975 C 167.4 195.975 156.3 189.675 147.2 196.475 C 145.4 197.875 144 199.875 142.7 201.575 C 140.6 204.275 138.4 206.875 135.9 209.275 C 129.2 216.075 120.7 220.475 111 220.575 C 108.8 220.575 109.3 223.675 111.2 223.675 C 120.7 223.575 129.1 219.775 136.2 213.575 C 141.1 209.175 144.5 203.375 149.4 198.975 C 154.2 194.675 162.1 196.675 167.4 198.675 C 173.6 200.975 179.5 203.675 186.2 203.875 C 196.8 204.075 204.8 195.675 204.7 185.375 Z  M 179.6 207.275 C 176.4 208.675 172 207.175 168.9 206.375 C 165.6 205.475 162.4 204.875 159 205.175 C 150 206.175 146.1 214.675 139.6 219.675 C 137.9 220.975 139.6 223.975 141.3 222.575 C 148.2 217.275 152.2 208.175 162.1 208.375 C 168.5 208.475 175 213.075 181.4 210.175 C 183.3 209.275 181.6 206.375 179.6 207.275 Z  M 230.6 187.575 C 228.5 186.875 227.7 190.075 229.7 190.875 C 233.9 192.375 235.4 197.575 233.3 201.375 C 230.5 206.475 223.1 206.975 218 206.875 C 213.1 206.775 208.3 205.775 203.5 206.075 C 198.3 206.375 193.8 208.675 190 212.075 C 188.4 213.575 190.8 215.975 192.4 214.475 C 203.2 204.575 217.9 213.475 230.4 208.175 C 239.4 204.375 240.3 190.975 230.6 187.575 Z " fill="rgb(57,53,91)"/><path d=" M 106.7 92.875 L 101.3 98.775 L 101.8 110.775 L 87.2 128.375 C 87.2 128.375 86.7 131.075 88 130.375 C 89.4 129.675 107.8 108.175 107.8 108.175 L 106.7 92.875 Z " fill-rule="evenodd" fill="rgb(57,53,91)"/><path d=" M 3.5 60.675 C 3.5 60.675 3.4 70.075 7.8 70.075 C 12.2 70.075 20.4 70.075 20.4 70.075 L 21 72.575 L 1.5 73.375 C 1.5 73.275 2.4 59.075 3.5 60.675 Z " fill-rule="evenodd" fill="rgb(57,53,91)"/><path d=" M 190.1 56.275 C 190 55.675 189.5 55.075 188.9 54.875 L 59.2 16.575 C 59.1 16.575 59.1 16.575 59 16.575 L 59 16.475 C 58.8 15.875 58.3 15.475 57.6 15.475 C 57 15.475 56.4 15.975 56.3 16.575 L 56 17.875 L 0.8 53.675 C 0.8 53.675 0.8 53.675 0.8 53.675 C 0.7 53.675 0.7 53.775 0.6 53.775 C 0.6 53.775 0.5 53.775 0.5 53.875 C 0.5 53.875 0.4 53.975 0.4 53.975 C 0.4 53.975 0.3 54.075 0.3 54.075 C 0.3 54.175 0.2 54.175 0.2 54.275 C 0.2 54.275 0.2 54.375 0.1 54.375 C 0.1 54.375 0.1 54.475 0.1 54.475 C 0.1 54.575 0.1 54.575 0 54.675 C 0 54.675 0 54.775 0 54.775 C 0 54.875 0 54.875 0 54.975 C 0 54.975 0 54.975 0 54.975 L 0 73.875 C 0 74.775 0.8 75.575 1.7 75.575 L 21.3 75.575 C 22.2 75.575 23 74.775 23 73.875 L 23 70.475 L 50.4 70.475 L 50.4 152.975 L 39.9 152.975 C 39 152.975 38.2 153.775 38.2 154.675 L 38.2 174.975 C 38.2 175.875 39 176.675 39.9 176.675 C 40.8 176.675 41.6 175.875 41.6 174.975 L 41.6 156.375 L 43.8 156.375 C 43.8 156.375 43.8 156.375 43.8 156.475 L 43.8 166.875 C 43.8 167.175 43.9 167.375 44 167.575 L 44 175.875 L 49.5 175.875 C 49.5 175.875 50.7 175.375 50.7 170.275 C 50.7 166.975 58.6 161.375 64 157.975 L 64 159.975 L 54 168.975 C 53.6 169.375 53.6 169.975 53.9 170.375 C 54.1 170.575 54.4 170.675 54.7 170.675 C 54.9 170.675 55.2 170.575 55.4 170.375 L 64 162.575 L 64 164.275 C 64 164.975 64.6 165.675 65.4 165.675 C 66.1 165.675 66.8 165.075 66.8 164.275 L 66.8 160.075 L 71.1 156.175 L 76.6 156.175 C 76.8 156.275 77 156.275 77.2 156.275 C 78.1 156.275 78.9 155.475 78.9 154.575 L 78.9 154.475 C 78.9 153.575 78.1 152.775 77.2 152.775 L 66.7 152.775 L 66.7 86.175 C 66.7 86.075 66.8 86.075 66.8 85.975 L 73.1 70.275 L 167.3 70.275 L 167.6 79.475 C 166.1 79.975 165 81.375 165 83.075 C 165 84.375 165.7 85.575 166.6 86.175 L 166.6 96.875 L 167.3 96.875 L 168 101.175 C 167.8 101.575 167.6 102.675 166.5 102.975 C 166.1 103.075 165.6 103.075 165.1 102.975 C 165.3 102.775 165.4 102.475 165.4 102.075 C 165.4 101.175 164.7 100.475 163.8 100.475 C 162.9 100.475 162.2 101.175 162.2 102.075 C 162.2 102.575 162.4 102.975 162.7 103.275 C 162.7 103.375 162.8 103.375 162.9 103.475 C 163.9 104.175 164.9 104.475 165.8 104.475 C 166.2 104.475 166.5 104.375 166.9 104.275 C 168.8 103.675 169.7 101.575 169.7 101.575 C 169.7 101.475 170.3 101.375 170.3 101.375 L 170.9 96.875 L 171.5 96.875 L 171.5 88.075 L 171.3 88.075 L 171.3 86.275 C 172.1 85.575 172.7 84.475 172.7 83.275 C 172.7 81.475 171.4 79.875 169.7 79.475 L 169.4 70.375 L 170 70.375 C 170.4 70.375 170.7 70.275 170.9 69.975 C 171 69.975 171 69.975 171.1 69.975 C 171.4 69.975 171.8 69.875 172.1 69.675 L 189.4 57.775 C 190 57.575 190.2 56.975 190.1 56.275 Z  M 57.9 22.675 L 61.4 34.875 L 58.6 38.275 L 55.5 34.475 L 57.9 22.675 Z  M 53.7 58.275 L 57.1 62.375 L 53.3 66.975 L 53.3 58.175 C 53.5 58.175 53.6 58.275 53.7 58.275 Z  M 53.3 55.375 L 53.3 46.675 L 57.2 51.475 L 54.1 55.275 L 53.3 55.375 Z  M 58.4 63.975 L 61.6 67.775 L 55.3 67.775 L 58.4 63.975 Z  M 56 57.875 L 61.2 57.375 L 58.4 60.775 L 56 57.875 Z  M 57 55.075 L 58.6 53.175 L 60 54.875 L 57 55.075 Z  M 55.1 45.675 L 58.6 41.475 L 62.1 45.675 L 58.6 49.875 L 55.1 45.675 Z  M 53.3 44.575 L 54.9 36.975 L 57.2 39.775 L 53.3 44.575 Z  M 19.8 58.575 L 11.5 59.375 C 10.8 59.475 10.2 60.075 10.3 60.875 C 10.4 61.575 11 62.075 11.6 62.075 C 11.6 62.075 11.7 62.075 11.7 62.075 L 19.7 61.375 L 19.7 67.875 L 12.3 67.875 C 11.6 67.875 10.9 68.475 10.9 69.275 C 10.9 69.975 11.5 70.675 12.3 70.675 L 19.7 70.675 L 19.7 72.375 L 3.4 72.375 L 3.4 57.175 L 19.7 57.175 L 19.7 58.575 L 19.8 58.575 Z  M 31.7 67.775 L 23.2 67.775 L 23.2 60.975 L 32.5 60.075 L 35.2 63.375 L 31.8 67.475 C 31.8 67.575 31.8 67.675 31.7 67.775 Z  M 35 59.875 L 38.5 59.575 L 36.6 61.875 L 35 59.875 Z  M 34.3 67.775 L 36.6 64.975 L 38.9 67.775 L 34.3 67.775 Z  M 37.9 63.375 L 41.3 59.275 C 41.3 59.275 41.3 59.275 41.3 59.175 L 41.8 59.175 L 44.9 62.975 L 41.2 67.475 L 37.9 63.375 Z  M 44.2 58.975 L 48.5 58.575 L 46.2 61.375 L 44.2 58.975 Z  M 43.6 67.775 L 46.2 64.575 L 48.8 67.775 L 43.6 67.775 Z  M 50.6 66.675 L 47.5 62.975 L 50.6 59.275 L 50.6 66.675 Z  M 50.7 44.175 C 50.7 44.275 50.7 44.375 50.7 44.475 L 50.7 55.675 L 23.3 58.275 L 23.3 55.275 C 23.3 54.375 22.5 53.575 21.6 53.575 L 7.7 53.575 L 55.3 22.675 L 50.7 44.175 Z  M 54.6 137.475 C 54.6 137.475 54.6 137.475 54.6 137.475 C 54.6 137.375 54.6 137.375 54.6 137.475 L 58.9 132.575 L 63.2 137.475 C 63.2 137.475 63.2 137.475 63.2 137.475 C 63.2 137.475 63.2 137.475 63.2 137.475 L 58.8 142.475 L 54.6 137.475 Z  M 57.5 143.975 L 53.3 148.675 L 53.3 139.075 L 57.5 143.975 Z  M 53.3 135.775 L 53.3 126.175 L 57.5 130.975 L 53.3 135.775 Z  M 54.6 124.575 C 54.6 124.575 54.6 124.575 54.6 124.575 C 54.6 124.575 54.6 124.575 54.6 124.575 L 58.9 119.675 L 63.2 124.575 C 63.2 124.575 63.2 124.575 63.2 124.575 C 63.2 124.575 63.2 124.575 63.2 124.575 L 58.9 129.475 L 54.6 124.575 Z  M 53.3 122.875 L 53.3 113.275 L 57.5 118.075 L 53.3 122.875 Z  M 54.6 111.675 C 54.6 111.675 54.6 111.675 54.6 111.675 C 54.6 111.675 54.6 111.675 54.6 111.675 L 58.9 106.775 L 63.2 111.675 C 63.2 111.675 63.2 111.675 63.2 111.675 C 63.2 111.675 63.2 111.675 63.2 111.675 L 58.9 116.575 L 54.6 111.675 Z  M 53.3 110.075 L 53.3 100.475 L 57.5 105.275 L 53.3 110.075 Z  M 54.6 98.775 C 54.6 98.775 54.6 98.775 54.6 98.775 C 54.6 98.775 54.6 98.775 54.6 98.775 L 58.9 93.875 L 63.2 98.775 C 63.2 98.775 63.2 98.775 63.2 98.775 C 63.2 98.775 63.2 98.775 63.2 98.775 L 58.9 103.675 L 54.6 98.775 Z  M 53.3 97.175 L 53.3 87.575 L 57.5 92.375 L 53.3 97.175 Z  M 54.6 85.975 C 54.6 85.975 54.6 85.975 54.6 85.975 C 54.6 85.975 54.6 85.975 54.6 85.975 L 58.9 81.075 L 63.2 85.975 C 63.2 85.975 63.2 85.975 63.2 85.975 C 63.2 85.975 63.2 85.975 63.2 85.975 L 58.9 90.875 L 54.6 85.975 Z  M 53.3 84.275 L 53.3 74.675 L 57.5 79.475 L 53.3 84.275 Z  M 64.2 152.975 L 53.4 152.975 L 53.4 151.675 L 58.9 145.475 L 64.2 151.775 L 64.2 152.975 Z  M 64.2 148.675 L 60.2 143.975 L 64.2 139.475 L 64.2 148.675 Z  M 64.2 135.375 L 60.3 130.975 L 64.2 126.575 L 64.2 135.375 Z  M 64.2 122.575 L 60.3 118.175 L 64.2 113.775 L 64.2 122.575 Z  M 64.2 109.675 L 60.3 105.275 L 64.2 100.875 L 64.2 109.675 Z  M 64.2 96.775 L 60.3 92.375 L 64.2 87.975 L 64.2 96.775 Z  M 64.2 83.875 L 60.3 79.475 L 64.2 75.075 L 64.2 83.875 Z  M 64.2 72.775 C 63.9 72.675 63.5 72.875 63.3 73.075 L 59 77.975 L 54.7 73.075 C 54.4 72.675 53.8 72.675 53.4 72.875 L 53.4 70.475 L 64.2 70.475 L 64.2 72.775 L 64.2 72.775 Z  M 64.2 67.775 L 64.2 67.775 C 64.1 67.675 64 67.575 64 67.475 L 59.8 62.375 L 63.2 58.275 C 63.3 58.275 63.3 58.275 63.4 58.275 C 63.6 58.275 63.9 58.175 64 58.075 C 64.1 57.975 64.1 57.975 64.2 57.875 L 64.2 67.775 Z  M 64.2 54.375 L 62.4 54.575 L 59.9 51.575 L 64.1 46.475 C 64.1 46.475 64.1 46.375 64.2 46.375 L 64.2 54.375 L 64.2 54.375 Z  M 64.2 45.075 C 64.1 44.975 64.1 44.975 64.2 45.075 L 59.9 39.875 L 62.1 37.275 L 64.2 44.675 L 64.2 45.075 L 64.2 45.075 Z  M 68.2 156.375 L 66.9 157.575 L 66.9 156.375 L 68.2 156.375 Z  M 66.8 44.075 L 64.1 34.675 C 64.4 34.275 64.3 33.675 63.9 33.275 C 63.8 33.175 63.7 33.175 63.7 33.175 L 60.1 20.575 L 171.8 53.475 C 171.4 53.775 171 54.075 170.6 54.375 C 170.4 54.275 170.2 54.275 170 54.275 L 66.8 54.275 L 66.8 44.475 C 66.9 44.375 66.9 44.175 66.8 44.075 Z  M 168.7 56.975 L 165.6 60.775 L 162.5 56.975 L 168.7 56.975 Z  M 158.4 56.975 L 155.3 60.775 L 152.2 56.975 L 158.4 56.975 Z  M 148.1 56.975 L 145 60.775 L 141.9 56.975 L 148.1 56.975 Z  M 137.8 56.975 L 134.7 60.775 L 131.6 56.975 L 137.8 56.975 Z  M 127.4 56.975 L 124.3 60.775 L 121.2 56.975 L 127.4 56.975 Z  M 117.1 56.975 L 114 60.775 L 110.9 56.975 L 117.1 56.975 Z  M 106.8 56.975 L 103.7 60.775 L 100.6 56.975 L 106.8 56.975 Z  M 96.4 56.975 L 93.3 60.775 L 90.2 56.975 L 96.4 56.975 Z  M 86.1 56.975 L 83 60.775 L 79.9 56.975 L 86.1 56.975 Z  M 69.5 56.975 L 75.8 56.975 L 72.7 60.775 L 69.5 56.975 Z  M 71.3 62.375 L 67.1 67.475 C 67 67.575 67 67.675 66.9 67.775 L 66.8 67.775 L 66.8 56.975 L 66.9 56.975 C 66.9 57.075 67 57.175 67.1 57.275 L 71.3 62.375 Z  M 66.9 80.975 L 66.9 70.475 L 71.1 70.475 L 66.9 80.975 Z  M 72.2 67.775 L 69.5 67.775 L 72.7 63.975 L 73.5 64.875 L 72.2 67.775 Z  M 74 62.375 L 74.9 61.275 L 74.3 62.675 L 74 62.375 Z  M 74.4 67.775 L 74.9 66.675 L 75.8 67.775 L 74.4 67.775 Z  M 75.7 64.475 L 78.2 58.175 L 81.6 62.275 L 77.8 66.975 L 75.7 64.475 Z  M 79.8 67.775 L 83 63.975 L 86.2 67.775 L 79.8 67.775 Z  M 84.3 62.375 L 88.1 57.675 L 91.9 62.375 L 88.1 67.075 L 84.3 62.375 Z  M 90.1 67.775 L 93.2 63.975 L 96.4 67.775 L 90.1 67.775 Z  M 94.6 62.375 L 98.4 57.675 L 102.2 62.375 L 98.4 67.075 L 94.6 62.375 Z  M 100.5 67.775 L 103.7 63.975 L 106.9 67.775 L 100.5 67.775 Z  M 104.9 62.375 L 108.7 57.675 L 112.5 62.375 L 108.7 67.075 L 104.9 62.375 Z  M 110.8 67.775 L 114 63.975 L 117.2 67.775 L 110.8 67.775 Z  M 115.3 62.375 L 119.1 57.675 L 122.9 62.375 L 119.1 67.075 L 115.3 62.375 Z  M 121.1 67.775 L 124.3 63.975 L 127.5 67.775 L 121.1 67.775 Z  M 125.6 62.375 L 129.4 57.675 L 133.2 62.375 L 129.4 67.075 L 125.6 62.375 Z  M 131.5 67.775 L 134.7 63.975 L 137.9 67.775 L 131.5 67.775 Z  M 135.9 62.375 L 139.7 57.675 L 143.5 62.375 L 139.7 67.075 L 135.9 62.375 Z  M 141.8 67.775 L 145 63.975 L 148.2 67.775 L 141.8 67.775 Z  M 146.3 62.375 L 150.1 57.675 L 153.9 62.375 L 150.1 67.075 L 146.3 62.375 Z  M 152.1 67.775 L 155.3 63.975 L 158.5 67.775 L 152.1 67.775 Z  M 156.6 62.375 L 160.4 57.675 L 164.2 62.375 L 160.4 67.075 L 156.6 62.375 Z  M 167.5 67.775 L 162.5 67.775 L 165.7 63.975 L 168.3 67.075 C 167.8 67.175 167.6 67.475 167.5 67.775 Z  M 170.9 88.175 L 167.5 88.175 L 167.5 86.875 C 168 87.075 168.5 87.175 169.1 87.175 C 169.8 87.175 170.4 86.975 170.9 86.675 L 170.9 88.175 L 170.9 88.175 Z  M 169.9 81.775 C 170.5 82.075 170.8 82.675 170.8 83.375 C 170.8 84.375 170 85.175 169 85.175 C 168 85.175 167.2 84.375 167.2 83.375 C 167.2 82.775 167.5 82.275 167.9 81.975 C 168 82.375 168.4 82.675 168.9 82.675 C 168.9 82.675 168.9 82.675 168.9 82.675 C 169.4 82.675 169.9 82.275 169.9 81.775 Z  M 170.6 66.775 L 166.9 62.275 L 168.9 59.875 C 169.3 62.275 171.1 64.175 173.4 64.775 L 170.6 66.775 Z  M 178.4 61.475 L 176.4 62.775 C 176 62.875 175.5 62.975 175.1 62.975 C 172.8 62.975 170.9 61.075 170.9 58.775 C 170.9 58.175 171 57.675 171.2 57.175 C 171.3 57.075 171.3 56.975 171.3 56.875 C 172 55.475 173.4 54.575 175.1 54.575 C 175.4 54.575 175.6 54.575 175.8 54.675 L 176.7 54.975 C 178.2 55.575 179.3 57.075 179.3 58.875 C 179.3 59.775 179 60.775 178.4 61.475 Z  M 181.3 59.475 C 181.3 59.275 181.3 59.075 181.3 58.875 C 181.3 57.875 181.1 56.975 180.7 56.175 L 184.5 57.275 L 181.3 59.475 Z " fill-rule="evenodd" fill="rgb(57,53,91)"/></g><g><path d=" M 201 232.375 L 65.8 232.375 C 60.8 232.375 55.7 228.675 54.1 223.875 L 12.3 95.275 C 10.8 90.575 12.7 84.475 16.8 81.575 L 27.1 74.075 C 28.9 72.775 31.4 73.175 32.7 74.975 C 34 76.775 33.6 79.275 31.8 80.575 L 21.5 88.075 C 20.2 88.975 19.5 91.375 20 92.875 L 61.8 221.475 C 62.3 222.975 64.3 224.375 65.8 224.375 L 201 224.375 C 202.6 224.375 204.6 222.875 205 221.475 L 206.7 216.275 C 207.4 214.175 209.6 213.075 211.7 213.675 C 213.8 214.375 215 216.575 214.3 218.675 L 212.6 223.875 C 211.1 228.675 206 232.375 201 232.375 Z " fill="rgb(57,53,91)"/></g><g><path d=" M 245.1 114.975 C 244.7 114.975 244.3 114.875 243.9 114.775 C 241.8 114.075 240.6 111.875 241.3 109.775 L 246.8 92.975 C 247.3 91.475 246.5 89.175 245.3 88.175 L 135.9 8.675 C 134.6 7.775 132.2 7.775 130.9 8.675 L 107.1 25.975 C 105.3 27.275 102.8 26.875 101.5 25.075 C 100.2 23.275 100.6 20.775 102.4 19.475 L 126.2 2.175 C 130.2 -0.725 136.6 -0.725 140.6 2.175 L 250 81.675 C 254 84.575 256 90.675 254.5 95.375 L 249 112.175 C 248.4 113.975 246.8 114.975 245.1 114.975 Z " fill="rgb(57,53,91)"/></g></g><text transform="matrix(1,0,0,1,68.434,259.023)" style="font-family:'Dosis';font-weight:700;font-size:24px;font-style:normal;font-variant-ligatures:none;letter-spacing:4;fill:#39355b;stroke:none;">W E R F T</text></g></svg>