<?xml version="1.0" standalone="no"?>
<!DOCTYPE svg PUBLIC "-//W3C//DTD SVG 20010904//EN"
 "http://www.w3.org/TR/2001/REC-SVG-20010904/DTD/svg10.dtd">
<svg version="1.0" xmlns="http://www.w3.org/2000/svg"
 width="700.000000pt" height="700.000000pt" viewBox="0 0 700.000000 700.000000"
 preserveAspectRatio="xMidYMid meet">
<metadata>
Created by potrace 1.11, written by Peter Selinger 2001-2013
</metadata>
<g transform="translate(0.000000,700.000000) scale(0.100000,-0.100000)"
fill="#000000" stroke="none">
<path d="M3461 6199 c-18 -6 -45 -18 -60 -27 -77 -49 -579 -418 -593 -436 -46
-56 -2 -146 71 -146 32 0 76 29 331 215 281 204 297 214 340 214 44 0 73 -20
1070 -745 1717 -1248 1558 -1129 1571 -1173 10 -35 6 -53 -61 -256 -48 -147
-70 -225 -65 -242 10 -40 50 -73 88 -73 66 0 79 21 158 258 62 183 73 227 73
282 0 76 -28 147 -77 199 -18 18 -286 218 -597 444 -1745 1269 -1996 1450
-2032 1469 -46 24 -163 33 -217 17z"/>
<path d="M1763 5838 c-6 -7 -12 -20 -16 -29 -3 -9 -164 -119 -359 -245 -194
-126 -394 -256 -445 -289 -51 -33 -185 -120 -298 -194 l-205 -133 0 -238 c0
-189 3 -240 14 -249 9 -8 87 -11 262 -9 l249 3 5 55 5 55 318 3 317 2 0 -965
0 -965 -124 0 -124 0 -46 138 c-25 75 -129 396 -232 712 -164 505 -185 579
-178 610 8 30 30 51 149 140 76 58 146 117 154 131 29 52 -19 129 -82 129 -27
0 -62 -20 -173 -101 -174 -126 -179 -131 -211 -198 -21 -44 -27 -71 -27 -126
0 -65 20 -132 268 -890 276 -847 451 -1384 626 -1922 107 -330 124 -365 198
-416 85 -60 -22 -56 1742 -56 1764 0 1657 -4 1742 56 53 36 90 95 123 192 33
99 32 125 -4 162 -64 64 -133 25 -171 -96 -17 -54 -33 -84 -53 -101 l-29 -24
-1609 0 -1609 0 -29 28 c-20 19 -38 55 -59 120 l-31 93 181 90 c100 50 191 95
204 99 22 9 22 8 12 -23 -6 -18 -22 -44 -36 -59 -76 -82 42 -85 703 -17 160
16 326 32 370 36 l80 6 165 162 c177 174 258 238 360 290 90 45 162 65 239 65
85 0 120 -10 268 -76 160 -72 207 -81 324 -67 140 18 185 44 262 153 67 95
102 125 160 135 39 8 44 14 25 33 -9 9 -6 12 17 12 53 0 145 -119 145 -187 0
-15 -9 -65 -20 -111 -25 -105 -25 -153 -1 -183 16 -21 30 -24 122 -29 63 -4
113 -12 126 -20 16 -10 29 -12 50 -5 25 9 28 17 39 87 32 207 117 483 219 708
145 324 379 676 642 968 90 100 98 123 68 182 -20 38 -29 38 -236 -1 -505 -94
-1037 -235 -1566 -413 -90 -30 -165 -51 -167 -48 -2 4 -7 42 -11 85 -7 81 -24
107 -67 107 -26 0 -33 25 -53 198 -16 134 -21 155 -39 167 -12 7 -141 49 -287
94 l-266 81 -124 -10 c-68 -5 -142 -10 -165 -10 l-41 0 -13 106 c-6 58 -11
107 -9 108 2 2 41 16 87 30 49 17 86 35 92 46 19 36 -17 56 -202 115 -203 64
-178 39 -198 205 -6 47 -13 92 -16 102 -9 31 -56 33 -68 2 -3 -8 1 -60 9 -117
22 -153 32 -136 -106 -187 -68 -25 -127 -53 -135 -64 -17 -25 -3 -52 31 -60
14 -4 25 -11 25 -17 0 -6 -7 -9 -15 -5 -12 4 -14 -1 -10 -32 4 -20 12 -82 18
-137 l12 -100 215 2 c118 1 206 0 195 -3 -17 -3 -407 -34 -434 -34 -15 0 -516
-569 -519 -590 -2 -10 11 -65 28 -122 17 -57 33 -110 36 -119 3 -12 -129 -145
-430 -434 -239 -230 -437 -423 -440 -430 -7 -20 31 -187 45 -196 20 -13 35
-11 49 6 10 12 10 28 1 76 -7 34 -15 67 -17 73 -4 11 1153 1135 1177 1144 5 2
9 -2 9 -10 0 -7 12 -102 26 -211 14 -109 24 -200 22 -202 -6 -6 -189 -122
-593 -378 -466 -295 -475 -301 -475 -327 0 -22 35 -44 53 -34 6 4 219 139 472
299 253 161 496 314 540 342 68 42 80 54 83 80 2 16 -9 118 -23 226 l-26 197
61 72 c33 40 59 77 57 83 -3 5 -13 77 -23 159 -12 97 -23 150 -31 153 -36 14
-72 -18 -271 -237 l-210 -231 19 -62 c23 -74 23 -91 5 -106 -11 -10 -15 -8
-20 6 -2 10 -14 51 -26 91 l-21 73 49 57 c28 31 133 149 234 262 174 194 186
205 228 212 24 4 45 6 47 4 2 -2 13 -77 24 -167 12 -90 26 -170 31 -176 6 -7
18 -13 28 -13 39 0 41 20 19 184 -12 86 -19 162 -16 169 4 10 87 20 326 37
l320 23 188 -57 c274 -84 313 -97 313 -104 0 -4 9 -67 19 -139 10 -73 15 -133
12 -133 -3 0 -55 7 -116 15 -144 19 -445 19 -609 0 -243 -28 -526 -98 -545
-133 -6 -11 8 -130 40 -347 26 -181 47 -330 46 -331 -1 -1 -63 -31 -137 -66
-311 -148 -873 -461 -1208 -671 -120 -76 -154 -93 -159 -81 -7 18 -18 9 112
90 454 280 956 556 1234 678 l64 28 -6 52 c-3 28 -10 64 -16 79 l-11 28 -47
-27 c-124 -71 -461 -276 -573 -349 -69 -45 -165 -108 -215 -140 -139 -91 -340
-231 -453 -317 -64 -48 -104 -73 -107 -65 -2 6 -18 55 -34 107 -26 80 -28 96
-16 103 23 12 19 27 -30 104 -24 40 -47 84 -51 98 -6 23 -3 25 24 25 39 0 43
7 49 83 3 34 12 74 19 89 18 35 120 125 214 189 70 47 75 49 78 29 2 -12 2
-23 0 -24 -34 -22 -233 -215 -233 -226 0 -34 36 -15 130 71 99 89 100 90 105
62 4 -20 12 -29 29 -31 31 -5 41 12 41 74 0 49 3 54 50 98 l50 47 75 -2 c96
-2 131 23 89 65 -12 13 -41 16 -145 16 l-129 0 0 770 0 771 76 189 77 190
1097 0 1097 0 6 -101 6 -102 -29 -27 c-34 -32 -40 -82 -15 -116 11 -14 14 -50
15 -146 0 -74 4 -128 10 -130 5 -1 14 -24 19 -50 6 -36 5 -52 -6 -68 -16 -23
-56 -28 -47 -6 5 13 -20 46 -36 46 -14 0 -40 -30 -40 -45 0 -22 48 -49 87 -49
52 0 105 59 111 125 2 27 9 49 14 49 6 0 9 47 7 123 -3 85 0 128 8 138 33 40
18 120 -25 134 -20 6 -32 72 -32 175 0 44 2 47 34 57 18 6 126 74 240 153 188
129 207 145 204 169 -3 24 -12 28 -148 69 -267 79 -1102 326 -2225 657 -368
109 -677 204 -686 211 -19 17 -34 18 -46 2z m642 -274 c292 -86 697 -205 900
-265 204 -60 542 -160 752 -221 248 -73 379 -116 373 -123 -6 -7 -407 -9
-1219 -7 l-1211 2 0 111 c0 92 -5 128 -29 213 -16 55 -31 112 -34 126 -3 14
-26 93 -51 175 -25 83 -46 151 -46 153 0 2 8 1 18 -2 9 -3 256 -76 547 -162z
m-731 -131 c-50 -230 -53 -258 -54 -385 0 -104 -3 -138 -12 -138 -22 0 -540
-49 -585 -55 l-43 -6 0 43 c0 24 -5 49 -12 56 -8 8 -62 12 -177 12 -103 0
-161 4 -156 9 8 8 1087 711 1091 711 0 0 -23 -111 -52 -247z m158 96 l37 -131
-31 -40 -32 -39 -38 43 c-20 24 -36 48 -34 53 1 6 14 63 27 128 13 64 26 117
29 117 3 0 22 -59 42 -131z m-72 -258 c-5 -9 -25 -34 -44 -56 l-35 -40 15 70
c23 105 22 104 49 71 17 -21 21 -34 15 -45z m165 -76 c6 -30 6 -30 -12 -9 -10
12 -31 38 -46 57 l-29 36 23 33 23 32 18 -60 c10 -32 20 -72 23 -89z m-45 -48
c0 -5 -17 -29 -37 -54 l-37 -45 -38 43 c-20 24 -38 48 -38 53 0 5 17 29 37 54
l37 45 37 -44 c21 -24 39 -48 39 -52z m-145 -182 c-20 -25 -41 -45 -46 -45 -5
0 -9 45 -9 101 l0 101 46 -56 46 -57 -37 -44z m195 65 c0 -80 -2 -90 -18 -90
-17 0 -49 28 -66 58 -5 8 9 34 36 67 24 30 44 54 46 55 1 0 2 -40 2 -90z
m-120 -98 c-29 -5 -36 4 -19 24 12 14 14 14 27 -3 11 -16 11 -18 -8 -21z
m2783 -32 c45 -50 32 -116 -28 -144 -68 -33 -135 8 -135 83 0 94 99 131 163
61z m130 -38 c-36 -27 -53 -33 -53 -20 0 7 -3 23 -6 34 -5 21 -4 21 36 11 38
-10 40 -13 23 -25z m-3828 -2 c0 -12 -22 -17 -95 -25 -104 -11 -120 -17 -120
-45 0 -23 24 -32 74 -26 23 3 65 8 94 11 l52 6 0 -75 0 -75 -97 -3 c-91 -3
-99 -5 -108 -25 -8 -19 -18 -23 -57 -23 -79 0 -108 51 -116 203 l-5 97 189 -2
c160 -3 189 -5 189 -18z m1286 -8 c-39 -55 -47 -57 -80 -20 -17 18 -31 36 -31
41 0 4 30 7 66 7 l65 0 -20 -28z m240 0 c-37 -52 -48 -57 -71 -31 -48 56 -47
59 25 59 l66 0 -20 -28z m240 0 c-37 -52 -48 -57 -71 -31 -48 56 -47 59 25 59
l66 0 -20 -28z m259 21 c0 -5 -14 -23 -31 -41 -33 -37 -41 -35 -80 20 l-20 28
65 0 c36 0 66 -3 66 -7z m240 0 c-1 -9 -57 -73 -64 -73 -2 0 -19 18 -36 40
l-32 40 66 0 c36 0 66 -3 66 -7z m240 0 c-1 -9 -57 -73 -64 -73 -2 0 -19 18
-36 40 l-32 40 66 0 c36 0 66 -3 66 -7z m219 -33 c-18 -22 -35 -40 -39 -40 -4
0 -21 18 -39 40 l-32 40 71 0 71 0 -32 -40z m240 0 c-18 -22 -35 -40 -39 -40
-4 0 -21 18 -39 40 l-32 40 71 0 71 0 -32 -40z m240 0 c-18 -22 -35 -40 -38
-40 -3 0 -21 18 -39 40 l-33 40 71 0 71 0 -32 -40z m240 0 c-18 -22 -35 -40
-38 -40 -3 0 -21 18 -39 40 l-33 40 71 0 71 0 -32 -40z m-2505 -5 c-14 -19
-30 -35 -35 -35 -4 0 -17 13 -29 29 l-20 30 27 4 c16 2 41 5 56 6 l28 1 -27
-35z m225 -29 l40 -49 -19 -26 c-11 -14 -33 -42 -49 -61 l-30 -35 -1 120 c0
72 4 115 9 110 5 -6 27 -32 50 -59z m510 -36 c7 -12 -2 -30 -32 -69 l-41 -53
-43 48 c-23 27 -43 54 -43 59 0 6 19 32 42 59 l41 48 34 -38 c18 -22 37 -46
42 -54z m241 0 c6 -12 -3 -30 -33 -69 l-41 -53 -43 48 c-23 27 -43 53 -43 58
0 4 19 31 42 58 l42 51 33 -39 c19 -22 38 -46 43 -54z m240 -1 c7 -13 0 -29
-33 -69 l-42 -52 -42 49 c-24 26 -43 52 -43 57 0 4 19 31 42 58 l42 51 33 -39
c19 -22 38 -46 43 -55z m250 -13 c0 -4 -19 -31 -42 -58 l-41 -50 -34 39 c-57
65 -57 65 -11 123 l42 53 43 -49 c23 -27 43 -53 43 -58z m240 0 c0 -4 -19 -31
-42 -58 l-42 -50 -23 28 c-13 16 -33 41 -43 55 l-20 27 42 52 42 53 43 -49
c23 -27 43 -53 43 -58z m240 1 c0 -5 -19 -32 -42 -59 l-42 -50 -23 28 c-13 16
-33 41 -43 55 l-20 27 42 52 42 53 43 -49 c24 -27 43 -52 43 -57z m208 48 l40
-49 -42 -53 c-22 -28 -44 -51 -48 -50 -3 1 -24 24 -46 52 l-40 49 42 53 c22
29 44 52 47 51 4 -2 25 -25 47 -53z m239 2 l41 -53 -42 -51 c-22 -29 -43 -52
-46 -52 -3 0 -24 23 -46 52 l-42 51 41 53 c23 29 44 53 47 53 3 0 24 -24 47
-53z m-2487 -17 l29 -37 -44 -49 -44 -49 -1 99 c0 110 1 110 60 36z m190 -46
l0 -106 -45 54 c-24 29 -45 57 -45 62 0 13 70 96 81 96 5 0 9 -47 9 -106z
m373 60 l36 -46 -41 -54 -42 -53 -23 21 c-13 12 -23 27 -23 35 0 13 50 143 55
143 1 0 19 -21 38 -46z m-764 5 l-22 -32 -19 23 c-27 33 -23 40 23 40 l40 0
-22 -31z m-101 -10 c46 -54 46 -56 5 -109 -21 -27 -41 -48 -45 -47 -3 1 -22
22 -41 46 l-35 44 40 49 c23 26 43 48 45 48 2 0 16 -14 31 -31z m-124 -4 c-16
-24 -18 -25 -35 -9 -24 21 -16 34 22 34 29 0 29 0 13 -25z m306 -57 l0 -83
-35 40 c-19 22 -34 42 -35 45 0 7 60 80 66 80 2 0 4 -37 4 -82z m-393 33 l31
-38 -41 -51 -42 -52 -97 0 -98 0 0 79 0 79 78 7 c42 3 84 8 92 9 36 8 47 4 77
-33z m3219 -53 l36 -21 -32 -20 -32 -21 -43 50 -43 49 21 29 20 29 19 -37 c11
-21 35 -47 54 -58z m-2606 -48 l32 -40 -72 0 -72 0 32 40 c17 22 35 40 40 40
5 0 23 -18 40 -40z m305 30 c3 -5 -1 -23 -10 -40 -12 -23 -22 -30 -46 -30
l-30 0 33 40 c35 42 43 46 53 30z m262 -22 c18 -18 33 -36 33 -40 0 -4 -32 -8
-71 -8 l-70 0 33 40 c18 22 35 40 38 40 2 0 19 -14 37 -32z m229 10 c52 -60
53 -58 -25 -58 l-72 0 32 40 c18 22 35 40 39 40 4 0 15 -10 26 -22z m262 -18
l33 -40 -70 0 c-39 0 -71 2 -71 5 0 7 62 75 69 75 3 0 21 -18 39 -40z m241 0
l32 -40 -71 0 c-38 0 -70 2 -70 5 0 8 62 75 69 75 4 0 22 -18 40 -40z m240 0
l32 -40 -71 0 c-38 0 -70 2 -70 5 0 8 62 75 69 75 4 0 22 -18 40 -40z m241 0
l32 -40 -72 0 -72 0 32 40 c17 22 35 40 40 40 5 0 23 -18 40 -40z m226 18 c52
-60 53 -58 -26 -58 l-72 0 32 40 c17 22 35 40 39 40 4 0 16 -10 27 -22z m240
0 c52 -60 53 -58 -26 -58 l-72 0 32 40 c17 22 35 40 39 40 4 0 16 -10 27 -22z
m248 -7 c16 -16 25 -34 22 -40 -4 -6 -34 -11 -67 -11 l-60 0 33 40 c18 22 36
40 39 40 3 0 18 -13 33 -29z m-2788 -49 c-14 -2 -39 -2 -56 0 l-30 3 27 34 27
34 28 -34 29 -34 -25 -3z m-226 28 l21 -30 -51 0 -52 0 24 29 c13 17 26 30 30
30 4 1 16 -12 28 -29z m875 -20 c3 -5 1 -10 -4 -10 -6 0 -11 5 -11 10 0 6 2
10 4 10 3 0 8 -4 11 -10z m-265 -95 c0 -17 -19 -45 -59 -87 l-59 -62 -52 57
c-29 31 -58 57 -66 57 -14 0 -20 41 -7 53 3 4 60 7 125 7 l118 0 0 -25z m160
15 c0 -10 -79 -212 -86 -219 -2 -2 -4 48 -4 112 l0 117 45 0 c25 0 45 -4 45
-10z m-352 -158 l40 -47 -49 -55 -49 -55 0 108 c0 62 4 106 9 103 5 -4 27 -27
49 -54z m192 -44 l0 -92 -40 39 c-22 21 -40 43 -40 48 0 7 71 96 78 97 1 0 2
-41 2 -92z m-79 -85 c65 -70 64 -64 10 -126 l-49 -56 -50 57 -50 57 45 52 c25
29 48 53 52 53 4 0 23 -17 42 -37z m2569 -8 c0 -14 -9 -29 -20 -35 -29 -15
-60 4 -60 36 0 23 3 25 24 20 14 -3 28 -1 31 4 10 16 25 1 25 -25z m0 -100 c0
-10 -11 -15 -35 -15 -24 0 -35 5 -35 15 0 10 11 15 35 15 24 0 35 -5 35 -15z
m-2687 -162 c-25 -29 -47 -53 -49 -53 -2 0 -4 48 -4 108 l1 107 49 -54 48 -55
-45 -53z m197 55 l0 -92 -40 39 c-22 21 -40 43 -40 48 0 7 71 96 78 97 1 0 2
-41 2 -92z m-36 -171 c-37 -44 -78 -87 -84 -87 -3 0 -27 24 -52 53 l-46 53 49
57 50 56 50 -55 c50 -55 50 -56 33 -77z m-161 -80 l45 -53 -48 -55 -49 -54 -1
108 c0 59 2 107 4 107 2 0 24 -24 49 -53z m197 -57 l0 -90 -40 44 c-22 24 -40
47 -40 52 0 7 70 84 77 84 2 0 3 -40 3 -90z m-49 -179 c-16 -20 -39 -45 -51
-56 l-22 -20 -48 55 -48 55 50 57 50 57 49 -56 49 -56 -29 -36z m-148 -168
c-25 -29 -47 -53 -49 -53 -2 0 -4 48 -4 108 l1 107 49 -54 48 -55 -45 -53z
m197 46 l0 -92 -40 44 c-21 24 -39 48 -40 54 0 8 69 85 77 85 2 0 3 -41 3 -91z
m-84 -71 c71 -78 70 -68 15 -131 l-49 -56 -50 57 -50 57 45 52 c25 29 49 53
52 53 4 0 20 -15 37 -32z m-113 -275 c-25 -29 -47 -53 -49 -53 -2 0 -4 48 -4
108 l1 107 49 -54 48 -55 -45 -53z m197 52 l0 -95 -40 44 c-22 24 -40 47 -40
51 0 7 70 91 78 94 1 1 2 -42 2 -94z m2255 15 c108 -10 286 -38 294 -45 2 -2
4 -38 5 -80 l1 -76 -155 -58 c-310 -117 -671 -267 -949 -397 -52 -25 -98 -41
-101 -37 -7 9 -93 583 -88 588 2 2 59 17 128 34 115 28 351 66 460 74 104 8
303 6 405 -3z m-2321 -112 c50 -57 51 -52 -17 -127 l-37 -41 -29 33 c-16 18
-38 44 -49 57 l-20 24 46 53 c25 29 49 53 53 53 4 0 28 -23 53 -52z m-114
-238 c-15 -19 -37 -44 -49 -54 l-21 -19 0 109 0 109 49 -55 49 -55 -28 -35z
m180 33 l0 -97 -29 28 c-15 15 -34 38 -41 51 -12 22 -10 28 26 69 21 24 40 45
42 45 1 1 2 -43 2 -96z m-56 -110 c84 -101 81 -104 -66 -101 -79 2 -123 7
-125 14 -4 12 115 154 128 154 4 0 33 -30 63 -67z m-415 -290 l0 -108 -25 69
c-13 39 -24 87 -24 108 0 34 3 38 25 38 l25 0 -1 -107z m561 103 c0 -3 -4 -8
-10 -11 -5 -3 -10 -1 -10 4 0 6 5 11 10 11 6 0 10 -2 10 -4z"/>
<path d="M3705 3125 c-177 -21 -445 -72 -462 -89 -6 -6 8 -132 43 -402 l16
-121 122 54 c116 52 510 223 721 313 55 23 149 58 208 78 79 26 106 40 102 50
-3 7 -5 26 -5 40 0 44 -12 52 -101 68 -112 20 -496 26 -644 9z"/>
<path d="M2862 3974 l-62 -69 6 -140 6 -140 -171 -205 c-108 -130 -171 -213
-171 -227 0 -57 24 -33 329 317 l153 175 -7 115 c-4 63 -10 144 -14 179 l-6
65 -63 -70z"/>
<path d="M3526 3579 c-132 -11 -246 -24 -253 -30 -7 -7 -13 -19 -13 -29 0 -40
16 -41 306 -19 l279 22 211 -62 c116 -33 220 -61 231 -61 29 0 47 24 34 47
-13 25 -446 154 -511 152 -25 -1 -153 -10 -284 -20z"/>
<path d="M2486 2602 c-185 -173 -339 -326 -353 -350 -14 -23 -23 -52 -21 -67
3 -25 19 -15 356 206 l352 232 0 71 c0 57 5 81 27 124 29 57 25 84 -13 90 -13
1 -124 -96 -348 -306z"/>
<path d="M5146 1912 c-3 -5 -10 -39 -16 -76 -20 -126 -87 -223 -188 -273 -52
-26 -66 -28 -172 -28 -113 0 -117 1 -265 54 -306 109 -393 126 -504 97 -85
-22 -134 -57 -211 -151 -91 -112 -235 -260 -299 -307 -114 -86 -299 -158 -405
-158 -75 0 -104 -18 -90 -55 10 -24 48 -28 135 -15 254 37 434 150 644 405 97
118 163 181 209 200 98 41 211 26 437 -59 168 -63 199 -72 297 -86 194 -27
375 68 455 238 26 56 31 79 32 142 0 74 0 75 -27 78 -14 2 -29 -1 -32 -6z"/>
<path d="M5780 1825 c-19 -23 -4 -61 30 -75 65 -27 101 -111 86 -195 -9 -49
-65 -107 -129 -136 -51 -24 -57 -24 -363 -24 l-310 0 -85 -42 c-115 -59 -154
-92 -145 -126 9 -37 40 -35 100 8 27 19 74 45 105 57 53 22 70 23 346 23 274
1 294 3 359 24 190 63 268 282 149 421 -32 36 -97 80 -121 80 -5 0 -15 -7 -22
-15z"/>
<path d="M4120 1419 c-92 -18 -143 -54 -294 -206 -81 -80 -146 -153 -146 -163
0 -20 19 -40 38 -40 7 0 74 60 147 134 169 169 225 202 350 200 53 -1 113 -10
180 -28 152 -42 283 -35 293 15 5 29 -27 51 -62 42 -52 -13 -136 -6 -241 20
-120 30 -204 39 -265 26z"/>
<path d="M2618 1196 c-291 -20 -451 -35 -459 -43 -7 -7 -9 -22 -5 -39 l7 -27
137 7 c75 4 156 12 180 17 23 5 133 13 245 19 111 5 236 16 277 24 67 13 210
62 210 72 0 8 -160 0 -592 -30z"/>
</g>
</svg>
