<svg version="1" xmlns="http://www.w3.org/2000/svg" width="933.333" height="933.333" viewBox="0 0 700.000000 700.000000"><path d="M345.3 45.4c-4.8 1.6-2.7.1-39.8 26.9-15.9 11.5-30.5 22.5-32.2 24.3-6.7 6.9-2.1 17.4 7.6 17.4 3.5 0 4.9-.9 40.1-26.6 15.2-11.1 28.5-20.6 29.7-21.2 3.2-1.8 8.4-1.4 12 .7 1.7 1.1 17.9 12.7 36 25.8 18 13.2 82.2 59.8 142.5 103.6 60.3 43.9 110.6 80.9 111.7 82.3 3.4 4.4 2.7 9.1-5.5 33.7-8.1 24.7-8.5 27.4-4.1 31.5 4.6 4.4 12.8 3.7 16.1-1.3.8-1.2 5.1-13.6 9.6-27.6 7.6-23.5 8.2-25.8 7.6-31.3-.8-8.1-4.8-16.4-10.4-21.8-2.6-2.5-53.3-39.8-112.7-82.9-59.4-43.1-124.5-90.3-144.6-105-23.8-17.3-38.3-27.2-41.5-28.3-5.6-1.9-16.2-2-22.1-.2z"/><path d="M152.6 88.2c-1.1 2.8-8 7.6-40.7 28.8-21.7 14-54.2 35.1-72.4 46.8-18.1 11.8-33.6 22.1-34.2 23-1 1.2-1.3 8.1-1.3 26.7 0 21.1.2 25.4 1.6 27.3 1.5 2.2 1.7 2.2 29.3 2.2 20.2 0 28-.3 28.9-1.2.7-.7 1.2-3.6 1.2-6.5V230h72v217h-28.5l-25.8-79.8c-14.2-43.8-25.8-81-25.7-82.5 0-5 2.8-7.9 17.8-18.8 16.7-12 19.3-15.2 17.2-21.5-2-5.9-9.1-9-14.3-6.3-3.9 2.1-29.9 21.3-33 24.4-1.7 1.6-4.4 5.8-6 9.3-2.4 5.2-2.9 7.6-2.9 13.5 0 6.7 1.8 12.6 23.2 78.2C84 440.2 94.6 473 126.5 571c11.3 34.9 21.5 65.4 22.6 67.7 2.6 5.4 9.7 11.8 16.7 15.1l5.7 2.7h369l5.6-2.6c6.3-3 12.9-8.5 15.8-13.2 2.1-3.5 8.1-21.2 8.1-24 0-8-11.3-12.9-17.2-7.4-1.5 1.4-3.6 5.6-5.2 10.8-2 6.1-3.7 9.3-6.2 11.6L538 635H174.2l-3-2.5c-2.4-2-3.9-5.1-6.7-13.6-2.1-6.1-3.5-11.2-3.4-11.3.7-.6 25.3-12.8 35.6-17.6l10.1-4.8-1.4 4.3c-.8 2.3-2.6 5.3-4 6.5-9.6 9.1 8.6 9.1 95.8 0 15.7-1.7 30-3 31.8-3 2.7 0 5.1-2 18.3-15.3 19.6-19.6 24.3-23.7 35.2-30.9 18.1-11.8 33.8-15.3 48.4-10.9 4 1.2 12 4.4 17.8 7.2 5.8 2.7 12.9 5.6 15.6 6.4 9.4 2.8 28.4 1.2 36.9-3 4.8-2.5 10.4-8.2 14.4-14.7 4.2-6.8 10.4-12.4 14.8-13.3 6.1-1.2 6.9-1.6 5.7-2.8-3.2-3.2 1.7-3.7 6.7-.7 4.3 2.6 10.4 12.3 10.9 17.4.3 2.5-.5 8.1-2.1 14.3-1.4 5.6-2.6 11.5-2.6 13.2 0 8 5.4 11.3 17.9 11 8.2-.1 13.1.7 13.1 2.3 0 1.5 7.1.2 8.2-1.4.4-.7.8-2.7.8-4.3 0-4.6 6.6-32.5 10.6-45.5 15.6-49.9 47.3-103.7 87.2-147.7 4.6-5.1 8.7-10.5 9.1-12 .9-3.4-.1-7.8-2.6-10.5-2.3-2.5-4.4-2.3-35.5 3.8-53.6 10.5-103.2 23.6-160.6 42.6-13.4 4.4-24.6 7.8-24.8 7.5-.3-.3-.9-4.4-1.4-9.2-.5-4.8-1.4-9.3-2-10.1-.7-.7-2.7-1.6-4.6-2-1.9-.3-3.7-1-3.9-1.5-.3-.4-1.6-9.2-2.9-19.5-1.6-12.4-2.9-19.1-3.9-20.1-.8-.8-15.3-5.7-32.3-10.9l-30.9-9.3-14 .9c-7.7.5-16.1 1.2-18.6 1.5l-4.6.5-1.2-9.7c-.7-5.4-1.4-11-1.7-12.4-.5-2.5-.1-2.7 8.8-5.9 10.8-3.8 11.8-4.5 11.8-7.5 0-1.2-.6-2.7-1.2-3.3-.7-.5-10.1-3.8-20.8-7.2-10.7-3.5-19.9-6.7-20.5-7.2-.5-.5-1.7-6.9-2.6-14.3-1.6-13.6-2.7-16.5-5.9-16.5-4.2 0-4.5 2.3-2.6 17.2.9 7.7 1.6 14.2 1.4 14.3-.2.2-6.4 2.6-13.8 5.5-7.4 2.8-14.1 5.7-14.9 6.5-2.1 2.1-.6 5.9 2.9 7.2 1.6.6 3 1.6 3 2.2 0 .6-.7.8-1.5.5-.8-.4-1.5-.5-1.5-.3 0 2 4.1 31.3 4.4 31.6.2.2 6.4 0 13.7-.6 7.3-.6 17.8-1 23.3-1 9 .1 9.6.3 5.1 1-2.7.5-14.1 1.5-25.2 2.3-11.1.8-20.7 1.7-21.3 2.1-2.7 1.6-58 64.7-58 66.1 0 .8 1.8 7.5 4 14.8 2.2 7.3 4 13.5 4 13.8 0 .3-20.6 20.4-45.7 44.6-25.2 24.2-47.5 45.8-49.7 48l-3.9 4.1 1.8 9.3c2.1 11.2 2.9 12.8 5.9 12.8 4.4 0 5.1-2.2 3.2-11.3l-1.6-8.2 8.7-8.6c17.9-17.7 124.6-119.9 124.9-119.7.9.9 6.3 48.2 5.6 48.7-.5.3-27.5 17.5-60.1 38.1-43.6 27.6-59.3 38.1-59.7 39.8-.7 2.7 1.1 5.2 3.8 5.2 1 0 12.8-6.9 26.1-15.4 13.3-8.4 40.4-25.5 60.2-38.1 19.8-12.5 36.9-23.6 38-24.6 2-1.9 2-2-1.2-26.6l-3.1-24.7 6.4-7.5c3.5-4.2 6.4-8.5 6.4-9.6 0-1.1-1-9.5-2.2-18.8l-2.2-16.7h-3.7c-4.1 0-.5-3.5-43.1 43.1l-8.8 9.6 2.5 8.4c2.2 7.7 2.3 8.5.8 10.1-.9 1-1.8 1.7-2 1.5-.1-.2-1.6-4.8-3.3-10.3-2.8-9.5-2.9-9.9-1.1-11.9 53.9-60.7 51.7-58.5 59.6-58.5 2.1 0 2.3.7 4.5 19.1 2.3 18.8 3.2 21.9 6.5 21.9 1.4 0 4.5-2.6 4.5-3.8 0-.4-1.1-9-2.5-19.2-1.3-10.1-2.3-18.6-2.2-18.7.1-.1 16.7-1.4 36.9-2.9l36.6-2.8 23.3 7.2c12.9 3.9 25.7 7.8 28.5 8.7l5 1.5 2.1 15.7c1.1 8.7 1.9 15.9 1.9 15.9-.1.1-4.6-.6-10.1-1.4-15.1-2.3-58.8-2.3-76.5.1-15.7 2.1-35.8 6.3-48.3 10.2-7.3 2.2-8.8 3-9.3 5.1-.3 1.3 1.8 18.8 4.7 38.9 2.9 20 5.1 36.6 4.8 36.8-.2.3-13.5 7-29.5 15.1-43.5 21.9-87 46.4-123.1 69.2-15.4 9.8-17.3 10.5-17.3 6.8 0-.9 48.5-30.3 74.5-45.1 24.6-14 55.7-30.2 70.8-36.8 8.3-3.7 13.9-6.7 14.2-7.7.6-1.7-1.8-12.6-3.3-15.3-.5-1.1-1.9-.6-6.2 1.9-3 1.8-14 8.4-24.5 14.6-41 24.4-103.4 66.1-121.7 81.3-3.4 2.7-4.9 3.5-5.3 2.5-.3-.7-2.1-6-4-11.7-3.1-9.3-3.3-10.6-2-12.1.8-.9 1.5-2.2 1.5-2.9 0-.7-2.5-5.4-5.5-10.4s-5.5-9.6-5.5-10.4c0-.8 1.2-1.3 3-1.3 3.8 0 4.9-2.1 5.9-11.5 1-8.5 2.4-11 10.9-18.5 5.3-4.8 22.3-17 23.6-17 .3 0 .6 1 .6 2.3 0 1.7-3.7 5.6-13.6 14.6-13 11.8-15.4 15.2-11.4 15.8.8.2 6.7-4.4 13-10.2l11.5-10.4.7 3.1c.5 2.8 2.2 4.7 4 4.8 1.9 0 3.8-4.9 3.8-10.1 0-5.7 0-5.8 5.4-10.3l5.3-4.6h9c9.7 0 11.3-.7 11.3-5.2 0-4.1-2.8-4.8-18.6-4.8H180V272l8.6-21.5 8.6-21.5 124.2.2 124.1.3.3 11.7.3 11.8-3.3 2.9c-4 3.5-4.3 8.5-1 13 2 2.8 2.2 4.2 2.2 16.5 0 7.4.4 13.7.9 14 1.5.9 2.3 11.3 1.1 13.5-1.2 2.3-6.5 3.1-5.7.8 1.3-3.6-4.2-6.4-7.1-3.5-3.4 3.4 1.5 8.8 8 8.8 3.4 0 4.7-.7 8.2-4.3 3.6-3.6 4.4-5.1 4.9-9.7.4-2.9 1.2-5.7 1.8-6.1.8-.4 1-4.7.8-14-.3-11.5-.1-13.9 1.5-16.8 2.5-4.6 1.5-9.2-2.9-12.8l-3.3-2.8-.7-11.5-.7-11.5 3.8-1.1c4.2-1.1 49.9-32 50.9-34.3.3-.8-.1-2.3-.8-3.4-1.4-2.1-.6-1.9-67.7-21.7-50.2-14.8-93.2-27.5-115-34-10.7-3.1-51.2-15.1-90-26.5s-71.2-21.4-72.1-22.1c-2.8-2.5-5.7-1.7-7.3 1.8zm67.9 26.9c30.3 8.8 64 18.8 75 22 11 3.3 51.6 15.2 90.3 26.6 41.7 12.3 70.1 21.1 69.9 21.7-.3.8-41.2 1.2-137.5 1.4L181 187v-12.8c0-11.6-.3-13.9-3.5-24.9-1.9-6.7-3.5-13.2-3.5-14.5 0-1.3-.4-2.8-.9-3.4-.5-.5-2.8-7.4-5.1-15.4-2.2-8-4.3-15.3-4.6-16.2-.4-1.2-.1-1.6.8-1.3.7.2 26.1 7.7 56.3 16.6zM144 132.5c-5.8 27.1-6 28.4-6 43v15.1l-34.7 3.2c-19.2 1.8-35.4 3.3-36 3.2-.8 0-1.3-1.5-1.3-4.3 0-7.3.3-7.1-21.3-7.7l-19.4-.5L56.9 164c17.4-11.2 45.3-29.3 62-40.2 16.8-10.9 30.6-19.6 30.7-19.5.2.2-2.3 12.9-5.6 28.2zm22 2.8c0 1.1-6.2 8.7-7 8.7-.4 0-2.4-2.1-4.5-4.6l-3.8-4.5 2.7-13.7c1.5-7.5 2.9-14.4 3.2-15.2.5-1.2 9.4 26.6 9.4 29.3zm-12 14.6c-.5.9-2.7 3.6-4.9 6.1l-3.9 4.5 1.4-7c.8-3.9 1.7-8.1 2-9.5l.6-2.5 2.8 3.4c2.1 2.5 2.7 3.8 2 5zm17.3 3.4c2.7 9.7 2.3 9.8-4.3 1.2-2.6-3.3-3.9-5.9-3.4-6.7 1.6-2.8 3.8-4.8 4.5-4.1.4.5 1.8 4.7 3.2 9.6zm-7.4 5.7l4.3 5.1-4.7 5.4-4.6 5.4-3.2-3.7c-1.7-2-3.7-4.5-4.5-5.4-1.3-1.5-1-2.3 2.8-6.8 2.3-2.7 4.5-5 4.9-5 .4 0 2.7 2.3 5 5zm10.1 17.9c0 9.8 0 9.9-2.5 10.4-2 .3-3.2-.3-5.5-3.2-1.7-1.9-3-3.9-3-4.4 0-1.2 9.3-12.6 10.3-12.6.4-.1.7 4.3.7 9.8zm-20.1 1.1c.7 1.2-.1 3-3.1 6.8-2.2 2.9-4.5 5.2-4.9 5.2-.5 0-.9-5.1-.9-11.3l.1-11.2 4 4.5c2.1 2.5 4.3 5.2 4.8 6zm7.5 10.1c-.3.5-1.9.9-3.5.9-3 0-3 0-1.2-2.4 1.6-2.2 2-2.3 3.5-.9 1 .9 1.5 2 1.2 2.4zm312.2 3.3c2.8 2.8 3.4 4.2 3.4 7.6 0 7.6-8.1 12.7-15.4 9.6-10.7-4.4-7.1-20.6 4.6-20.6 3.2 0 4.7.7 7.4 3.4zm13.7 2.3c1.5.3 2.7.8 2.7 1.2 0 .6-6.5 5.1-7.4 5.1-.2 0-.6-1.8-.8-4-.3-3.3-.1-3.9 1.2-3.5.8.4 2.7.9 4.3 1.2zM56 195.9c0 2.2-1.7 2.7-13 3.6-10.5.9-11.2 1.2-10.8 4.3l.3 2.7 11.8-.3 11.7-.3v17l-10.7.3c-10.1.3-10.9.4-11.8 2.5-.8 2-1.7 2.3-6.7 2.3-4.9 0-5.9-.3-7.7-2.7-1.2-1.4-2.8-4.9-3.5-7.7-1.6-5.8-3-21.1-2.1-22.6.4-.6 8.5-1 21.6-1 19.9 0 20.9.1 20.9 1.9zm144.8 2.3c-2 2.4-4.1 4.3-4.8 4.3-.7 0-2.8-1.9-4.7-4.3l-3.6-4.2h16.6l-3.5 4.2zm26.5.8l-3.8 4.9-3.7-4.2c-2.1-2.3-3.8-4.5-3.8-5 0-.4 3.4-.7 7.6-.7h7.5l-3.8 5zm28.8-2.3c-1.1 1.6-2.9 3.8-3.9 5.1l-1.8 2.3-3-3.8c-5.2-6.5-5.3-6.3 3.1-6.3h7.6l-2 2.7zm28.9-2c0 .5-1.7 2.7-3.8 5l-3.7 4.2-3.8-4.9-3.8-5h7.5c4.2 0 7.6.3 7.6.7zm24.4 3.8c-2 2.5-4 4.5-4.4 4.5-.4 0-2.4-2-4.4-4.5l-3.7-4.5h16.2l-3.7 4.5zm29.4-2.8c-.8 1-2.6 3.3-4 5l-2.6 3.3-4.2-5-4.2-5h8.3c7.7 0 8.1.1 6.7 1.7zm27.6-.5c-.4.7-2.1 3-3.8 5.1l-2.9 3.7-2.9-3.2c-5.8-6.7-5.8-6.8 2.7-6.8 5.8 0 7.4.3 6.9 1.2zm27.6-.6c0 .3-1.6 2.5-3.6 4.9l-3.6 4.4-2.7-3.2c-6-7.2-6.2-6.7 2.3-6.7 4.2 0 7.6.3 7.6.6zm23.9 4.3l-4.1 5-2.6-3.2c-1.4-1.8-3.2-4-4-5-1.4-1.6-1-1.7 6.7-1.7h8.2l-4.2 4.9zm27.5-.4c-2 2.5-4 4.5-4.4 4.5-.4 0-2.4-2-4.4-4.5l-3.7-4.5h16.2l-3.7 4.5zM164 196.7c-.5 1-2 3.1-3.4 4.7l-2.3 2.8-2.7-3.4c-1.4-1.9-2.6-3.8-2.6-4.1 0-.3 1.9-.8 4.3-1 2.3-.2 5-.4 6-.5 1.4-.2 1.6.1.7 1.5zm23.4 5.5l4.8 5.8-2.5 3.2c-1.4 1.8-3.9 4.9-5.6 6.8l-3 3.5-.1-13.5c0-7.3.4-13 .8-12.5.5.6 3 3.6 5.6 6.7zm57.7 4.5c1 1.9.6 2.8-3.2 7.6-2.4 3.1-4.8 5.5-5.3 5.3-.5-.1-2.9-2.7-5.4-5.8l-4.4-5.6 4.9-6.1 4.8-6.1 3.7 4.2c2 2.4 4.2 5.3 4.9 6.5zm23.8-4.5l5 6.1-4.7 5.8c-2.6 3.2-5 5.8-5.3 5.8-.3.1-2.7-2.6-5.3-5.9l-4.7-6 4.8-6c2.6-3.2 4.9-5.9 5-5.9.1-.1 2.5 2.7 5.2 6.1zm54.5-.2c5.4 6.8 5.4 6.4-1.6 14.4l-3.3 3.8-4.9-5.7c-4.5-5.2-4.8-5.9-3.6-7.9 1.2-1.9 8.2-10.6 8.6-10.6 0 0 2.2 2.7 4.8 6zm30.7 4.7c1 1.9.6 2.8-3.7 7.9l-4.9 5.6-3.3-3.8c-7-8-7-7.6-1.6-14.4l4.8-6.1 3.7 4.3c2.1 2.4 4.3 5.3 5 6.5zm27 0c1 1.9.6 2.8-3.2 7.6-2.4 3.1-4.8 5.5-5.3 5.3-.5-.1-2.9-2.7-5.4-5.8l-4.4-5.6 4.9-6.1 4.8-6.1 3.7 4.2c2 2.4 4.2 5.3 4.9 6.5zm24.3 7.3c-2.6 3.3-5 6-5.3 5.9-.3 0-2.7-2.6-5.3-5.8l-4.7-5.8 5-6.1 5-6.2 5 6 5 6-4.7 6zm27.5-11.2l4.3 5.3-4.4 5.6c-2.5 3.1-4.9 5.8-5.4 5.9-1.3.4-9.7-10.5-9.1-11.9 1.1-2.7 9-11.8 9.6-11 .4.4 2.7 3.2 5 6.1zm-280 3.2l1.9 2.5-4.9 5.8-4.9 5.9v-11.9l.1-11.8 3 3.5c1.6 1.9 3.8 4.6 4.8 6zm21.1 3.5c0 6.9-.1 12.5-.3 12.5-.2 0-2.8-3.1-5.9-6.8l-5.6-6.9 4.6-5.6c2.5-3.1 5.1-5.7 5.9-5.7 1 0 1.3 2.8 1.3 12.5zm122.5-6.9l4.5 5.6-3.2 4c-1.8 2.2-4.1 5-5 6.2l-1.8 2.1-1.7-2.1c-1-1.2-3.3-4-5.1-6.2l-3.2-4 4.5-5.6c2.6-3.1 5-5.6 5.5-5.6s2.9 2.5 5.5 5.6zm-167.1-1.1c-1.4 1.9-2.8 3.5-3.1 3.5-.2 0-1.5-1.2-2.8-2.8l-2.4-2.7 4.2-.6c2.3-.3 4.8-.7 5.5-.7.7-.1.2 1.3-1.4 3.3zm85.6 1c1.9 2.5 3.5 5 3.5 5.5s-2 3.5-4.4 6.6l-4.4 5.7-2.9-3.2-2.8-3.1 2.1-5.2c1.2-2.9 2.6-6.5 3.1-8.1.6-1.5 1.3-2.7 1.6-2.7.4.1 2.3 2.1 4.2 4.5zm-96.6 2c4.3 5.2 4.2 6.1-1.4 12.5l-3.9 4.4-3.5-3.9c-5.3-6-5.3-6.8-.5-12.5 2.3-2.7 4.5-5 4.9-5 .4 0 2.4 2 4.4 4.5zm-14.4-1.6c-1.6 3.1-3 3.5-5.1 1.5-2.3-2.1-1-3.4 3.4-3.4 2.4 0 2.6.2 1.7 1.9zm34 7.3l-.1 9.3-3.9-4.5c-2.2-2.5-4-4.8-4-5.1 0-.6 7-8.9 7.6-8.9.2 0 .4 4.2.4 9.2zm-44.5-3.7l3.7 4.4-4.7 5.6-4.7 5.5H66v-17.8l10.8-.9c5.9-.6 11.2-1.1 11.9-1.1.6-.1 2.8 1.8 4.8 4.3zm363.9 6.1l3.7 2.1-3.4 2.6-3.4 2.6-3.4-4.2c-6.6-8.1-6.3-7.3-3.9-10.7l2.2-3 2.2 4.2c1.3 2.6 3.8 5.1 6 6.4zM162 221.8c-2.2.2-5.6.2-7.6 0l-3.5-.3 3.7-4.4 3.8-4.4 3.8 4.4 3.8 4.4-4 .3zm35.4-7.9c.3.5-.1 2.5-.9 4.5-1.4 3.2-1.9 3.6-5.1 3.6h-3.5l3.8-4.5c3.9-4.6 4.8-5.1 5.7-3.6zm30 3.6l3.7 4.5h-7.5c-4.2 0-7.6-.3-7.6-.6 0-.9 6.3-8.2 7.1-8.3.4-.1 2.3 1.9 4.3 4.4zm27 0l3.7 4.5h-7.6c-5.8 0-7.4-.3-6.9-1.3 1.5-2.5 5.9-7.7 6.5-7.7.4 0 2.3 2 4.3 4.5zm27.1-.8c1.9 2.1 3.5 4.1 3.5 4.5 0 .5-3.4.8-7.6.8h-7.5l3.7-4.5c2-2.5 3.8-4.5 4-4.5.2 0 1.9 1.7 3.9 3.7zm27.8.8l3.8 4.5h-16.2l3.8-4.5c2-2.5 4-4.5 4.3-4.5.3 0 2.3 2 4.3 4.5zm27.1 0l3.7 4.5h-7.5c-4.2 0-7.6-.3-7.6-.6 0-.8 6.4-8.4 7.1-8.4.4 0 2.3 2 4.3 4.5zm26.7 4.3c-2.3.2-5.7.2-7.7 0l-3.5-.3 3.7-4.4 3.8-4.4 3.9 4.4 3.9 4.4-4.1.3zm27.8-4.5l3.4 4.2-4.2.3c-2.3.2-5.7.2-7.6 0l-3.4-.3 3.5-4.3c2-2.3 3.9-4.2 4.2-4.1.4 0 2.2 1.9 4.1 4.2zm26.9-.3c1.7 2.1 3.2 4.1 3.2 4.4 0 .3-3.4.6-7.6.6h-7.5l3.7-4.5c2-2.5 3.9-4.5 4.3-4.5.3 0 2.1 1.8 3.9 4zm27.2 0c3.7 4.7 3.1 5.3-5.5 4.8l-5.7-.3 3.3-4.2c1.9-2.3 3.7-4.2 4.1-4.2.3-.1 2.1 1.7 3.8 3.9zm-316.3.2c4 4.5 3.8 4.8-2.7 4.8h-6.1l2.7-3.5c1.4-1.9 3-3.5 3.3-3.5.4 0 1.7 1 2.8 2.2zM104 219l2.1 3h-5c-2.8 0-5.1-.3-5.1-.7 0-.9 4.2-5.3 5.1-5.3.4 0 1.7 1.3 2.9 3zm99 2c0 .5-.4 1-1 1-.5 0-1-.5-1-1 0-.6.5-1 1-1 .6 0 1 .4 1 1zm-29 11.1c0 1.2-1.2 3.3-2.7 4.8-1.6 1.4-4.7 4.8-7.1 7.4l-4.3 4.8-4.7-5.2c-2.6-2.8-5.1-5.8-5.5-6.5-.4-.8-1.7-1.4-2.7-1.4-1.6 0-2-.7-2-3v-3h14.5c14.1 0 14.5.1 14.5 2.1zm17-1.3c0 .9-9 23.5-9.6 24.1-.2.2-.4-5.3-.4-12.2V230h5c2.8 0 5 .4 5 .8zm-40.1 28.3c-2.8 3.3-5.3 5.9-5.5 5.9-.2 0-.4-5.4-.4-12v-12.1l5.5 6.2 5.5 6.1-5.1 5.9zm22.7 4.6c-.4.5-8.9-8.3-9.4-9.8-.2-.5 1.8-3.4 4.5-6.5l4.8-5.7.3 10.8c.1 5.9.1 11-.2 11.2zm-10.1-1.8c2 2.2 4.4 5 5.5 6.3l1.9 2.5-5.7 6.3-5.7 6.2-5.2-6c-2.9-3.3-5.3-6.4-5.3-6.7 0-.8 10-12.5 10.6-12.5.2 0 2 1.8 3.9 3.9zm291 .1c1.6 5.1-6 8.6-8.5 3.9-1.7-3-.5-5.1 2.4-4.3 1.3.3 2.7.1 3-.5 1.1-1.7 2.4-1.3 3.1.9zm.5 12.7c0 .9-1.4 1.3-4.5 1.3-6.2 0-6.2-2.5 0-2.6 3.2-.1 4.5.3 4.5 1.3zm-304.2 18.4c-2.8 3.2-5.3 5.9-5.4 5.9-.2 0-.4-5.4-.4-12v-12.1l5.5 6.2 5.5 6.1-5.2 5.9zm22.8 4.6c-.5.5-7.5-6.9-8.9-9.3-.6-1 .7-3.2 4-7.1l4.8-5.6.3 10.8c.1 5.9.1 11-.2 11.2zm-7.7.6l5.2 5.8-5.7 6.5-5.7 6.5-4.6-5.2c-6.5-7.4-6.6-7.7-4-10.7 5.7-6.6 8.4-9.2 8.9-9 .4.2 3 2.9 5.9 6.1zm-15.1 28.9c-2.7 3.2-5.2 5.8-5.4 5.8-.2 0-.4-5.4-.4-12.1v-12l5.4 6.2 5.5 6.3-5.1 5.8zm23.2-5.7c0 5.8-.2 10.5-.5 10.5-.6 0-8.9-9-9.3-10.1-.4-1 7.9-10.9 9.1-10.9.4 0 .7 4.7.7 10.5zm-8.2 10.9l5.1 5.9-5.6 6.4-5.6 6.4-4.6-5.2c-6.5-7.4-6.6-7.7-4-10.7 5.8-6.6 8.4-9.2 9-9 .3.2 2.9 2.9 5.7 6.2zm-10.7 22c.4.6-1.7 3.8-4.7 7.1l-5.4 6v-25l4.8 5.4c2.6 3 5 5.9 5.3 6.5zm18.5 11.3c-.4.5-8.9-8.3-9.4-9.8-.2-.5 1.8-3.4 4.5-6.5l4.8-5.7.3 10.8c.1 5.9.1 11-.2 11.2zm-7.8.7l5.1 5.9-5.6 6.4-5.6 6.4-4.6-5.2c-6.5-7.4-6.6-7.7-4-10.7 5.8-6.6 8.4-9.2 9-9 .3.2 2.9 2.9 5.7 6.2zm-10.7 22c.4.6-1.7 3.8-4.7 7.1l-5.4 6v-25l4.8 5.4c2.6 3 5 5.9 5.3 6.5zm18.9.8l-.1 11.3-4.9-5.3c-2.8-2.9-5-5.7-5-6 0-.8 8.9-11.2 9.6-11.2.2 0 .4 5.1.4 11.2zm248.9-2.1c14.7 1 37 4.3 38.2 5.7.4.4.9 4.4 1.2 8.9l.6 8.1-14.2 5.2c-32.1 11.8-74.5 29.5-106.1 44.1-9.3 4.3-17.1 7.8-17.2 7.6-.1-.1-2.4-15.2-5.1-33.5-4.3-29.5-4.7-33.4-3.4-34.1.9-.5 6.3-2 12.1-3.4 31.7-7.8 63.9-10.8 93.9-8.6zm-257.1 13.3l5.1 5.9-5.6 6.4-5.7 6.5-5.3-5.9c-2.9-3.2-5.2-6.3-5.2-6.8-.1-1.4 10-12.7 10.9-12.3.4.2 3 2.9 5.8 6.2zM153.9 421l1.9 2.5-5.4 6-5.4 6v-25l3.5 4c1.9 2.2 4.4 5.1 5.4 6.5zm19.9 8.1l-.3 6.3-5.2-6-5.1-6 5.1-5.9 5.2-5.9.3 5.7c.2 3.1.2 8.4 0 11.8zM167 436c3.6 4.3 6.6 8.6 6.8 9.4.3 1.4-1.5 1.6-14.2 1.6s-14.6-.2-14.6-1.6c0-1.5 13.7-17.5 14.9-17.3.3 0 3.5 3.6 7.1 7.9zm-47.1 32.2l-.1 12.3-2.9-8.5c-1.6-4.6-2.9-10.1-2.9-12.2 0-3.6.2-3.8 3-3.8h3l-.1 12.2zm63.6-11.2c-.3.5-1 1-1.6 1-.5 0-.9-.5-.9-1 0-.6.7-1 1.6-1 .8 0 1.2.4.9 1z"/><path d="M380.5 391.6c-21.1 2.4-57.4 9-59.2 10.8-.6.5 3.9 39.4 6.4 55.7l.5 3.7 13.2-6c14.6-6.7 55.7-24.5 79.6-34.5 8.5-3.6 20.5-8.2 26.5-10.2l11-3.6-.8-6.2-.8-6.1-10.7-1.7c-10.4-1.7-55.9-2.9-65.7-1.9zM278.6 296.3l-7 7.7.2 10.8c.2 5.9.5 12.9.8 15.7l.5 5-19.5 23.5c-18.9 22.5-21.5 26.7-18.5 28.6.6.3 3.5-2 6.6-5.2 6.4-6.9 42.3-47.8 45.1-51.4 1.8-2.4 1.8-3.3.6-20-.7-9.6-1.5-18.6-1.6-20-.3-2.2-1-1.7-7.2 5.3zM352.2 341.4c-28.2 2.3-29.1 2.5-29.2 6.7 0 4.2 1.7 4.3 31.8 2 15.8-1.2 30.4-2.1 32.4-2.1s14.6 3.2 27.9 7c13.3 3.9 25 6.8 26 6.5 2.1-.7 3.2-3.5 2.3-5.8-.6-1.6-2.5-2.3-33.3-11.1-22.3-6.4-19.2-6.3-57.9-3.2zM236.7 451c-20.6 19.3-38.7 36.9-40.1 39.1-3 4.5-4.3 9.3-2.8 10.3.6.4 18.8-11 40.4-25.2l39.3-25.8v-7.9c0-6.8.4-8.9 2.8-13.6 3.2-6.3 3.2-8.5 0-10.6-2-1.4-3.8.1-39.6 33.7zM537.3 529.5c-1.6 1.1-2.1 3-2.6 8-1.1 13.9-11 27.7-23.5 32.7-4.9 1.9-7.4 2.3-17.2 2.2-12.8-.1-13.4-.3-45.5-11.5l-18-6.3-12-.1c-11.5 0-12.3.1-18.5 3.2-8.3 4-10.1 5.6-20.1 18.3-21.8 27.6-42.7 42.4-67 47.5-3.9.8-9.2 1.5-11.8 1.5-5.8 0-8.6 1.8-7.7 4.8 1.1 3.5 3.4 4.1 12.3 3.2 21.3-2.2 42.2-11.8 59.1-27.3 2.5-2.3 10-10.8 16.8-18.8 6.8-8.1 14.3-16.4 16.8-18.4 5.5-4.5 11.8-6.5 20.5-6.5 8.8 0 15.8 1.8 35.8 9 21.4 7.8 30.5 10 41.6 10 14.5 0 26-5 35.3-15.4 7.9-8.6 12.9-21.9 12.2-31.7-.4-4.9-3.2-6.7-6.5-4.4zM608.2 539.2c-2.7 2.7-1.3 5.7 4.2 9.2 13.3 8.5 12.6 26.1-1.5 34.8-9.5 5.9-17.9 6.5-59.9 4.2-13.8-.7-21.8.8-32 6.2-13.3 7-17.6 12.6-12.4 16 1.8 1.3 2.5 1.1 5.5-1 16.4-11.8 21.3-12.6 65.9-11.7 19.2.4 26.8-.7 35.9-5.3 17.2-8.8 22.1-33.5 9.1-46.4-3.3-3.4-9.9-7.2-12.3-7.2-.7 0-1.8.5-2.5 1.2z"/><path d="M422.2 585.1c-10.9 1.5-17.2 5.7-34.9 23.5-16.8 16.9-18.8 20-14.5 22.3 2.7 1.4 5.7-.9 20.7-16.2 11.3-11.5 14.2-13.9 20.9-17.3 7.3-3.6 8.4-3.8 16.5-3.7 6.3 0 11.8.9 20.6 3.2 14 3.6 24 4.1 29.5 1.3 4-2 4.8-4.2 2.4-6.7-1.4-1.4-2.5-1.5-5.8-.9-7 1.4-13.6.8-27.1-2.3-15-3.6-20.9-4.3-28.3-3.2zM295 607.6c-10.2.7-35.6 2.5-56.5 3.9-21.5 1.5-38.5 3.1-39.2 3.7-1.9 1.5-1.6 5.6.5 6.7 1.8.9 27.2-.7 44.2-2.8 4.1-.6 12.3-1 18.2-1 21.8-.2 41.4-3.7 52.6-9.6 5.6-2.9 7-2.8-19.8-.9z"/></svg>